<svg width="1917.3999999999999" height="4640.6" xmlns="http://www.w3.org/2000/svg" xml:space="preserve" version="1.1">

 <g>
  <title>Layer 1</title>
  <g id="svg_147">
   <g id="图层_7">
    <path id="svg_1" fill="#97E6C3" d="m1916.6,488.9c0.3,-0.1 0.6,0 0.8,0.1l0,17l-1,0l0.2,-17.1z" class="st0"/>
    <path id="svg_2" fill="#90CAF9" d="m445.7,58.7c36.4,0.3 68.7,11.8 96.6,35.5c25.4,21.6 42.1,48.8 47.8,81.4c10.3,58.8 -8.8,107.3 -56,143.9c-19.1,14.8 -41.2,23.7 -65.2,27.4c-7.5,1.2 -15,2.4 -22.6,2.2c-2.7,0.1 -5.2,-1.5 -6.1,-4c-1.1,-2.7 -1,-5.5 0.9,-7.5c2.3,-2.4 5.7,-2.1 8.8,-2.2c13.7,-0.5 27.1,-2.4 40,-7.2c15.6,-5.8 30.3,-13 42.8,-24.4c6.6,-6 12.2,-12.8 18.2,-19.3c15.5,-16.8 22.3,-37.1 27.3,-58.4c0.8,-3.6 1.5,-7.3 0,-10.8c-1.1,-2.4 1.8,-2.8 1.7,-4.8c-0.2,-3 0.5,-6.1 0,-9c-1.5,-8.8 -0.5,-17.9 -3,-26.7c-4.3,-15.5 -9.7,-30.6 -19,-43.8c-10.8,-15.4 -23.8,-28.7 -39.8,-38.7c-25.5,-15.9 -55.7,-22.8 -85.6,-19.6c-13,1.4 -25.4,4.1 -37.4,9.1c-14.6,6.2 -28.2,13.8 -40,24.9c-17,16 -29.6,34.6 -36.8,56.8c-3.7,11.1 -5.7,22.8 -6,34.5c0,1.8 -0.5,3.6 -0.6,5.4c-0.1,4.6 -2.9,6.5 -7.1,6.5c-3.9,0 -6.1,-2.9 -6.1,-7.9c0.1,-11.3 1.6,-22.5 4.4,-33.5c5.5,-21.2 15.1,-40.6 29.2,-57.4c23.8,-28.3 54.3,-45 90.6,-50.8c7.7,-1.2 15.3,-1.8 23,-1.6z" class="st1"/>
    <path id="svg_3" fill="#90CAF9" d="m198.5,1081.5c-22,-0.5 -49.1,1 -76,-0.8c-11.5,-0.8 -21.6,-5.8 -30.8,-12.3c-14.1,-9.8 -23.6,-24.9 -26.4,-41.8c-2.9,-16.6 -1.2,-33.2 7.9,-48.2c14.1,-23.3 35,-33.8 61.7,-33.8c5.9,0 8.8,2.2 8.8,6.4s-4.1,7.2 -9.6,7c-29.7,-1.3 -55.2,21.8 -56.6,51.3c-1.5,31.6 21.2,58.1 51.7,58.7c38.1,0.8 76.3,0.3 114.5,0.3c11.5,0 23,0.2 34.5,-0.2c16.7,-0.5 29.3,-8.6 40,-21c8.8,-10 13.4,-23 12.6,-36.3c-0.8,-21.2 -12.2,-35.9 -29.6,-46.7c-8.9,-5.5 -18.9,-6.3 -29,-6.5c-5,-0.1 -8.7,-2.9 -8.6,-6.8c0.1,-3.7 3.1,-6 8,-6.3c36.4,-1.7 65.9,24.5 71.2,56.4c5.9,35.3 -15.2,68.8 -49.7,78.2c-8,2.2 -16.1,2.2 -24.1,2.3c-21.9,0.3 -43.8,0.1 -70.5,0.1z" class="st1"/>
   </g>
   <path id="svg_4" fill="#FCD539" d="m619,544l-0.2,17.1c-3.6,52.6 -48.4,96.6 -101,99.2c-3,0.2 -6,0.2 -9,0.2c-86.5,0 -172.9,0 -259.4,0c-3.1,0 -6.3,0.7 -8.8,-2.2c-3.2,-3.9 -1.7,-9.2 3.3,-10.3c2.3,-0.4 4.6,-0.6 6.9,-0.5c85.8,0 171.6,0 257.4,0c12.8,0 25.2,-1.6 37.1,-6.4c25,-10.2 42.9,-27.8 53.4,-52.7c5.6,-13.1 8,-27.4 7.2,-41.6c-1.8,-31.5 -15.3,-57 -41.2,-75.3c-14.1,-10.1 -30.8,-15.9 -48.1,-16.6c-2.2,0 -4.3,-0.2 -6.5,-0.6c-3.5,-0.8 -5.6,-3 -5.2,-6.7s2.7,-5.4 6.4,-5.5c26.9,-0.4 50.1,8.8 70.3,26.4c20.8,18.1 32.7,41 36.7,68c0.4,2.5 0.5,5 0.7,7.5z" class="st2"/>
   <path id="svg_5" fill="#F06292" d="m1619.3,311.6c-1.3,-16 2.2,-29.8 11.5,-41.8c10.4,-13.5 24.3,-20.7 41.3,-21.9s32.1,3.7 44.6,15.4c10.3,9.6 16.6,22.6 17.9,36.6c1.2,11.1 -0.9,22.3 1.9,33.2c4.3,16.7 15,27.9 31.5,32.5c16.2,4.5 30.8,0.6 43.4,-11c10.2,-9.4 14.4,-21.3 14.7,-34.8c0.1,-5.8 0,-11.7 0,-17.5c0,-4.1 1.8,-7 6,-6.8c3.8,0.2 7,2 6.8,6.8c-0.4,13.9 1.4,27.8 -4.2,41.3c-5.3,13 -15,23.8 -27.4,30.3c-13.2,7.3 -27.5,8.4 -41.7,4.6c-17.5,-4.7 -30.4,-15.7 -38.6,-32.1c-5.9,-11.8 -4.7,-24.3 -4.8,-36.8c0,-8 -1.1,-15.8 -4.7,-22.9c-8.9,-17.8 -26.7,-27.7 -45.4,-25.7c-21.4,2.3 -35.3,16.6 -39.4,35.5c-2,9.3 -1,18.9 -0.8,28.4c0.1,4.1 -1.6,6.4 -5.3,7.6s-7.1,-0.9 -7.3,-4.8c-0.2,-5.6 0,-11.3 0,-16.1z" class="st3"/>
   <path id="svg_6" fill="#F06292" d="m539.7,426.8c-1.3,-16 2.2,-29.8 11.5,-41.8c10.4,-13.5 24.3,-20.7 41.3,-21.9s32.1,3.7 44.6,15.4c10.3,9.6 16.6,22.6 17.9,36.6c1.2,11.1 -0.9,22.3 1.9,33.2c4.3,16.7 14.9,27.9 31.5,32.5c16.2,4.5 30.8,0.6 43.4,-11c10.2,-9.4 14.4,-21.3 14.7,-34.8c0.1,-5.8 0,-11.7 0,-17.5c0,-4.1 1.8,-7 6,-6.8c3.8,0.2 7,2 6.8,6.8c-0.5,13.9 1.4,27.8 -4.2,41.3c-5.3,13 -15,23.8 -27.4,30.3c-13.2,7.3 -27.5,8.4 -41.7,4.6c-17.5,-4.7 -30.4,-15.7 -38.6,-32.1c-5.9,-11.8 -4.7,-24.4 -4.8,-36.8c0,-8 -1.1,-15.8 -4.7,-22.9c-8.9,-17.8 -26.7,-27.7 -45.4,-25.7c-21.4,2.3 -35.3,16.6 -39.4,35.5c-2,9.3 -1,18.9 -0.8,28.4c0.1,4.1 -1.6,6.4 -5.3,7.6s-7.1,-0.9 -7.3,-4.8c-0.2,-5.7 0,-11.4 0,-16.1z" class="st3"/>
   <path id="svg_7" fill="#FA6542" d="m1221.5,0c3.6,16.3 12.1,29.8 23.9,41.3c17.1,16.6 37.8,25.1 61.7,25.1c35,0 69.9,0.3 104.9,-0.4s70.3,-30.4 78.5,-64.4c0.1,-0.5 0.1,-1 0.1,-1.5l14,0c-3.8,12.8 -8.7,25.2 -16.6,36.2c-15.7,21.8 -36.8,35.3 -62.8,41.5c-7,1.7 -14.1,1.7 -21.2,1.7c-37,-0.3 -74,1.2 -110.9,-0.8c-14,-0.7 -26.7,-6.4 -38.7,-13.4c-19.1,-11.1 -32.2,-27.8 -41.2,-47.5c-2.5,-5.5 -5.1,-11.3 -5.5,-17.6l13.8,-0.2z" class="st4"/>
   <path id="svg_8" fill="#F43A5F" d="m1917.4,33.1c-17.1,1.2 -32,-4.7 -45.6,-14.3c-6.4,-4.5 -13.1,-9 -16.4,-16.7l17,0c12.5,12.2 27.4,18.6 45,18l0,13z" class="st5"/>
   <path id="svg_9" fill="#F9785F" d="m128,494.7c0,36.5 -0.3,73 0.1,109.4c0.3,30 -19.1,55.8 -47.2,63c-20.5,5.2 -39.6,2.1 -56.9,-11.2c-12.3,-9.6 -20.3,-21.9 -22.8,-36.6c-3.7,-21.3 0.9,-41.1 16.9,-57.3c11.7,-11.9 26.1,-17.2 42.3,-18.7c0.3,0 0.7,0 1,0c5.2,-0.2 9.1,2.4 9.2,6.2s-4.1,7.5 -8.9,7.5c-14.3,-0.2 -25.8,5.8 -35.5,15.9c-20.7,21.5 -15.8,59.5 9.6,75.3c23.3,14.5 50.3,9.8 68.1,-10.9c8.9,-10.3 11.3,-23.3 11.3,-36.7c-0.1,-73.5 -0.1,-146.9 0,-220.4c0,-1.8 0,-3.7 0.1,-5.5c0.3,-3.3 1.5,-5.6 5.4,-5.6s6.4,1.4 7.1,5.3c0.2,1.7 0.3,3.3 0.2,5c0,38.4 0,76.8 0,115.3z" class="st6"/>
   <path id="svg_10" fill="#F77B63" d="m1914.8,245.8c0,28.7 0,57.3 0,86c0,6 -2.4,8.8 -7.2,8.5c-3,-0.2 -5,-1.6 -5.3,-4.8c-0.2,-2 -0.3,-4 -0.3,-6c0,-52.7 0,-105.3 0,-158c0,-12.8 -2,-25.2 -10,-35.8c-9,-11.8 -20.3,-19.2 -35.4,-22.1c-26.4,-5.2 -55,12.8 -60.7,41.8c-2,10.1 -1,20.6 -1,30.9c0,2 0,4 -0.1,6c-0.4,4.3 -3.9,6.2 -7.2,6.3s-5.4,-2.8 -5.4,-6.4c0,-9.3 0,-18.7 0,-28c-0.1,-20.1 8.1,-36.6 23.1,-49.3c14.8,-12.6 32.6,-17.3 51.8,-14.8c21.5,2.8 38,14.1 49.1,32.8c6.4,10.8 8.8,22.8 8.7,35.3c-0.2,26 -0.1,51.8 -0.1,77.6z" class="st7"/>
   <path id="svg_11" fill="#F77B63" d="m1794.4,460.6c18.4,0 33.8,0 49.1,0c4.1,0 7.4,1 8.1,5.6c0.7,4.2 -2.3,7.2 -7.4,7.2c-12.2,0.1 -24.3,-0.1 -36.5,0.1c-18.3,0.2 -36.7,-0.9 -55,0.6c-29.1,2.3 -52.8,15.4 -71.2,37.7c-14.4,17.5 -22.5,37.9 -23.4,60.8c-0.1,1.8 -0.2,3.7 -0.4,5.5c-0.4,3.9 -2.4,6.2 -6.4,6.3c-3.8,0.1 -6.9,-3 -7,-6.8c0,0 0,-0.1 0,-0.1c-0.4,-9.4 1.2,-18.7 3.4,-27.7c2.9,-12.1 7.8,-23.6 14.6,-34c19.3,-30.1 46.2,-48.6 81.7,-53.8c17.8,-2.7 35.7,-0.8 50.4,-1.4z" class="st7"/>
   <path id="svg_12" fill="#F9785F" d="m853.2,361c0,28.7 0,57.3 0,86c0,6 -2.5,8.8 -7.2,8.5c-3,-0.2 -5,-1.6 -5.3,-4.8c-0.2,-2 -0.3,-4 -0.3,-6c0,-52.7 0,-105.3 0,-158c0,-12.8 -2,-25.2 -10,-35.8c-9,-11.8 -20.3,-19.1 -35.4,-22.1c-26.4,-5.1 -55,12.8 -60.7,41.8c-2,10.1 -1,20.6 -1,30.9c0,2 0,4 -0.1,6c-0.4,4.3 -3.9,6.2 -7.2,6.3s-5.4,-2.8 -5.4,-6.4c0,-9.3 0,-18.7 0,-28c-0.1,-20.1 8.1,-36.6 23.1,-49.3c14.8,-12.6 32.6,-17.3 51.8,-14.8c21.5,2.9 38,14.1 49.1,32.8c6.4,10.8 8.8,22.8 8.7,35.3c-0.1,25.9 -0.1,51.7 -0.1,77.6z" class="st6"/>
   <path id="svg_13" fill="#F9785F" d="m505.8,575.8c18.5,0 33.8,0 49.1,0c4.1,0 7.4,1 8.1,5.6c0.7,4.2 -2.3,7.2 -7.4,7.2c-12.2,0.1 -24.3,-0.1 -36.5,0.1c-18.3,0.2 -36.7,-0.9 -55,0.6c-29.1,2.3 -52.8,15.4 -71.2,37.7c-14.4,17.5 -22.5,37.9 -23.4,60.8c-0.1,1.8 -0.2,3.7 -0.4,5.5c-0.4,3.9 -2.4,6.2 -6.4,6.3c-3.8,0.1 -6.9,-3 -7,-6.8c0,0 0,-0.1 0,-0.1c-0.4,-9.4 1.2,-18.7 3.4,-27.7c2.9,-12.1 7.8,-23.6 14.6,-34c19.3,-30.1 46.2,-48.6 81.7,-53.8c17.9,-2.8 35.8,-0.8 50.4,-1.4z" class="st6"/>
   <path id="svg_14" fill="#AED581" d="m1916.6,488.9l-0.2,17.1c-3.6,52.6 -48.4,96.6 -101,99.2c-3,0.2 -6,0.2 -9,0.2c-86.5,0 -172.9,0 -259.4,0c-3,0 -6.3,0.7 -8.8,-2.2c-3.3,-3.9 -1.7,-9.2 3.3,-10.3c2.3,-0.4 4.6,-0.6 6.9,-0.5c85.8,0 171.6,0 257.4,0c12.8,0 25.2,-1.6 37.1,-6.4c25,-10.2 42.9,-27.8 53.4,-52.7c5.6,-13.1 8,-27.4 7.2,-41.6c-1.8,-31.5 -15.3,-57 -41.2,-75.3c-14.1,-10.1 -30.8,-15.9 -48.1,-16.6c-2.2,0 -4.3,-0.2 -6.4,-0.6c-3.4,-0.8 -5.6,-3 -5.2,-6.7s2.7,-5.4 6.4,-5.5c26.9,-0.4 50.1,8.8 70.3,26.4c20.8,18.1 32.7,40.9 36.7,68c0.3,2.5 0.4,5 0.6,7.5z" class="st8"/>
   <path id="svg_15" fill="#AED581" d="m221.2,885.9l0,101c0,3.7 0.1,7.3 -3.8,9.6s-8,0.7 -8.9,-3.8c-0.4,-2.5 -0.6,-4.9 -0.5,-7.4c0,-64 0,-128 0,-191.9c0,-12.4 -2.4,-24.2 -9.2,-34.6c-9.9,-15 -23.6,-24 -41.7,-27c-19.9,-3.3 -36.9,2.2 -51,15.7c-12.2,11.6 -18,26.4 -17.9,43.7c0.3,28.7 22.9,52.9 49.4,57c3.1,0.5 6.2,0.7 9.4,0.8c4.3,0.2 8.1,3.4 7.6,6.9c-0.6,4.3 -3.3,6.2 -7.6,6.2c-23.3,-0.5 -42.1,-9.6 -56.7,-28c-12.6,-15.9 -16.3,-33.7 -14.5,-53.2c1.3,-14.6 7.4,-27.1 17,-38.2c16.3,-19 37.1,-26.3 61.3,-24.6c32.7,2.3 59.7,26.5 65.7,58.7c1.1,6.6 1.6,13.2 1.5,19.9c0,29.6 -0.1,59.4 -0.1,89.2z" class="st8"/>
   <path id="svg_16" fill="#AED581" d="m1742.5,674.3c31.7,0 63.3,-0.1 95,0c38.1,0.2 66.8,27.3 68.2,65.3c1,27.1 -10.9,48.3 -34.7,61.4c-23.5,13 -47,11.1 -69.4,-3.7c-16.5,-10.9 -25,-26.6 -28.2,-45.8c-0.6,-3.2 -0.9,-6.5 -1,-9.8c-0.1,-3.4 2,-5.3 4.8,-5.8c3.4,-0.7 6.8,-0.1 8.2,3.8c0.5,1.8 0.7,3.6 0.8,5.4c1.6,29.1 25.6,51.6 54.3,51c29,-0.7 51.8,-24 52.3,-53.6c0.4,-29.4 -21.9,-53.8 -50.9,-54.8c-17,-0.6 -34,-0.2 -51,-0.2c-49.2,0 -98.3,0 -147.4,0c-2.2,0 -4.3,-0.1 -6.5,-0.4c-3.1,-0.3 -5.5,-2.9 -5.4,-6c-0.2,-3.3 2.2,-6.2 5.5,-6.5c1.8,-0.2 3.6,-0.4 5.5,-0.3c33.3,0.1 66.6,0 99.9,0z" class="st8"/>
   <path id="svg_17" fill="#AED581" d="m443.2,268.3c-37.7,0.4 -68.5,-34.4 -67.1,-71.9c1.4,-39.7 36.9,-68.4 72,-66.7c38.9,1.9 68.4,33.4 66.8,72s-33.4,68.1 -71.7,66.6zm58.7,-68.9c0.2,-31.1 -24.9,-56.5 -56,-56.7s-56.5,24.9 -56.7,56c-0.2,31 24.7,56.3 55.7,56.7c30.9,0.5 56.4,-24.1 56.9,-55.1c0.1,-0.3 0.1,-0.6 0.1,-0.9l0,0z" class="st8"/>
   <path id="svg_18" fill="#AED581" d="m380.2,429.9c-0.5,11.5 1.2,25.4 -2.5,38.9c-4.3,15.8 -13.1,28.5 -27,37.3c-20.6,13.1 -42.6,14.4 -63.9,3.6c-22.9,-11.7 -34.4,-31.5 -34.7,-57.8c-0.4,-32 25.3,-58.5 54.3,-62.7c3.3,-0.5 6.6,-0.1 10,-0.3c3.9,-0.2 5.6,2.4 6,5.4c0.6,3.1 -1.5,6.1 -4.6,6.6c0,0 0,0 -0.1,0c-5.9,1.3 -12,1.4 -17.9,3.3c-20.4,6.5 -34.6,27 -34.7,47.7c-0.3,24.6 17,45.9 41.2,50.7c14.4,2.8 27.9,-0.6 40,-9.7c14.2,-10.6 20.2,-25 20.5,-42s0.1,-34 0.1,-51c0,-1.7 0,-3.3 0.2,-5c0.4,-3.7 1.6,-6.2 6.1,-6.1s6.5,2.4 6.8,6.3c0.3,4.3 0.2,8.6 0.2,13c0,6.6 0,13.1 0,21.8z" class="st8"/>
   <path id="svg_19" fill="#AED581" d="m1847.6,935.2c-15.6,0.6 -30.1,-6.4 -41.9,-18c-9.9,-9.8 -16.8,-22 -18.2,-36.5c-0.3,-2.8 -1.4,-5.4 -1.2,-8.3c0.3,-4 1.4,-7.1 6,-7.4c5,-0.3 7.5,1.6 7.7,6.9c0.2,10.9 3.9,21.4 10.4,30.1c16.8,22.4 48.6,26.9 71,10.1c11.9,-9 19.3,-22.8 20.2,-37.7c0,-0.8 0,-1.7 0.1,-2.5c0.5,-4.8 3.3,-7.7 7,-7.5s6.3,3.4 6.2,8.2c-0.8,35.2 -30.8,63.7 -67.3,62.6z" class="st8"/>
   <path id="svg_20" fill="#AED581" d="m68.6,358.5c0,-30 0,-60 0,-89.9c0,-6.3 1.2,-7.5 6.4,-7.6c4.8,0 6.4,3 6.6,7c0.2,5.1 0,10.3 0,15.5c0,54.8 0,109.5 0,164.3c0,4 -0.2,7.6 -4.8,9.3c-4,1.4 -7.2,0 -8,-4.2c-0.2,-1.7 -0.3,-3.3 -0.2,-5c0,-29.8 0,-59.6 0,-89.4z" class="st8"/>
   <path id="svg_21" fill="#AED581" d="m577,789.5c31.7,0 63.3,-0.1 95,0c38.1,0.2 66.8,27.3 68.2,65.3c1,27.1 -10.9,48.3 -34.7,61.4c-23.5,13 -47,11.1 -69.4,-3.7c-16.5,-10.9 -25,-26.6 -28.2,-45.8c-0.6,-3.2 -0.9,-6.5 -1,-9.8c-0.1,-3.4 2,-5.3 4.9,-5.8c3.4,-0.7 6.8,-0.1 8.2,3.8c0.5,1.8 0.8,3.6 0.8,5.4c1.6,29.1 25.6,51.6 54.3,51c29,-0.7 51.8,-24 52.2,-53.6c0.4,-29.4 -21.9,-53.8 -50.9,-54.8c-17,-0.6 -34,-0.2 -51,-0.2c-49.2,0 -98.3,0 -147.5,0c-2.2,0 -4.3,-0.1 -6.5,-0.4c-3.1,-0.3 -5.5,-2.9 -5.4,-6c-0.2,-3.3 2.2,-6.2 5.5,-6.5c1.8,-0.2 3.6,-0.4 5.5,-0.3c33.3,0 66.6,0 100,0z" class="st8"/>
   <path id="svg_22" fill="#AED581" d="m560.1,1054.3c-15.6,0.6 -30.1,-6.4 -41.9,-18c-9.9,-9.8 -16.8,-22 -18.2,-36.5c-0.3,-2.8 -1.4,-5.4 -1.2,-8.3c0.3,-4 1.4,-7.1 6,-7.4c5,-0.3 7.5,1.6 7.6,6.9c0.2,10.9 3.8,21.5 10.4,30.2c16.8,22.4 48.7,26.9 71,10.1c11.9,-9 19.3,-22.7 20.2,-37.6c0,-0.8 0,-1.7 0.1,-2.5c0.5,-4.8 3.3,-7.7 7,-7.5s6.3,3.4 6.2,8.2c-0.7,35 -30.7,63.6 -67.2,62.4z" class="st8"/>
   <g id="图层_11">
    <path id="svg_23" fill="#F9785F" d="m357.4,815c36.5,0 73,0.3 109.4,-0.1c30,-0.3 55.8,19.1 63,47.2c5.2,20.5 2.1,39.6 -11.2,56.9c-9.5,12.3 -21.9,20.3 -36.6,22.8c-21.3,3.7 -41.1,-0.9 -57.4,-16.9c-11.9,-11.7 -17.2,-26.1 -18.7,-42.3c0,-0.3 0,-0.7 0,-1c-0.2,-5.2 2.4,-9.1 6.2,-9.3s7.6,4.1 7.5,8.9c-0.2,14.3 5.8,25.8 15.9,35.5c21.5,20.7 59.5,15.8 75.3,-9.6c14.5,-23.3 9.8,-50.3 -10.9,-68.1c-10.3,-8.9 -23.3,-11.3 -36.7,-11.3c-73.5,0.1 -146.9,0.1 -220.4,0c-1.8,0 -3.7,0 -5.5,-0.1c-3.3,-0.3 -5.6,-1.5 -5.6,-5.4s1.4,-6.4 5.3,-7.1c1.7,-0.2 3.3,-0.3 5,-0.2l115.4,0.1z" class="st6"/>
    <path id="svg_24" fill="#F9785F" d="m223.7,89.7c28.7,0 57.3,0 86,0c6,0 8.8,2.5 8.5,7.2c-0.2,3 -1.6,5 -4.8,5.3c-2,0.2 -4,0.3 -6,0.3c-52.7,0 -105.3,0 -158,0c-12.8,0 -25.2,2 -35.8,10c-11.8,9.1 -19.2,20.4 -22.1,35.5c-5.2,26.4 12.8,55 41.8,60.7c10.1,2 20.6,1 30.9,1c2,0 4,-0.1 6,0.1c4.3,0.4 6.2,3.9 6.3,7.2s-2.8,5.4 -6.4,5.4c-9.3,0 -18.7,0 -28,0c-20.1,0.1 -36.6,-8.1 -49.3,-23.1c-12.5,-14.8 -17.3,-32.6 -14.7,-51.8c2.8,-21.5 14.1,-38 32.8,-49.1c10.8,-6.4 22.8,-8.8 35.3,-8.7c25.9,0.1 51.7,0 77.5,0z" class="st6"/>
    <path id="svg_25" fill="#F9785F" d="m438.5,437.1c0,-18.5 0,-33.8 0,-49.1c0,-4.1 1,-7.4 5.6,-8.1c4.2,-0.7 7.2,2.3 7.2,7.4c0.1,12.2 -0.1,24.3 0.1,36.5c0.2,18.3 -0.9,36.7 0.6,55c2.3,29.1 15.4,52.8 37.7,71.2c17.5,14.4 37.9,22.5 60.8,23.4c1.8,0.1 3.7,0.2 5.5,0.4c3.9,0.4 6.2,2.4 6.3,6.4c0.1,3.8 -3,6.9 -6.8,7c0,0 -0.1,0 -0.1,0c-9.4,0.4 -18.7,-1.2 -27.7,-3.4c-12.1,-2.9 -23.6,-7.8 -34,-14.6c-30.1,-19.4 -48.6,-46.2 -53.8,-81.8c-2.7,-17.7 -0.8,-35.6 -1.4,-50.3z" class="st6"/>
   </g>
   <g id="图层_4">
    <path id="svg_26" stroke-miterlimit="10" stroke-width="16" stroke="#FCD539" fill="none" d="m628.2,825.1l123.8,0c31.6,-0.7 60.1,-3.8 60.1,-3.8c65.4,-10.4 105.8,-60.2 105.8,-60.2c42.8,-38.5 44.7,-100.7 44.7,-100.7l0,-377.2c-8.8,-40.8 -43.9,-75.8 -43.9,-75.8l-320.6,-186.9c-39.1,-19.2 -105,0 -105,0s-261.4,156.2 -309.4,180.7s-59,98.3 -59,98.3l0,237.5c-4.9,48.1 12.3,96.9 12.3,96.9s0.8,14.5 -4,20.1l-113.5,105.4" class="st9"/>
    <path id="svg_27" stroke-miterlimit="10" stroke-width="16" stroke="#FCD539" fill="none" d="m229.6,756.1c0,0 65.7,74.5 180.5,66.3s160.6,-19.7 244.2,-162.7c0,0 17.3,-136.4 127.7,-139.7c0,0 13.6,-2.4 13.9,-26.2c0,0 2.4,-101.3 -84.7,-163.2s-195.7,-54.1 -264,13.4l-314.2,310" class="st9"/>
   </g>
   <g id="图层_5">
    <g id="svg_28">
     <path id="svg_29" fill="#636363" d="m867.2,1040.4l-0.1,13.6l-104.8,-0.9l0.1,-16l82,-50.5l0,-0.8l-20,0.6l-61.6,-0.5l0.1,-13.6l104.8,0.9l-0.1,14.4l-86,52l0,0.8l20,-0.6l65.6,0.6z" class="st10"/>
     <path id="svg_30" fill="#636363" d="m870.6,922c-0.1,10.4 -4.2,19.2 -11.4,26.3s-16.1,10.3 -27.3,10.2s-20,-3.4 -27.1,-9.8c-7.3,-6.5 -11.3,-15.9 -11,-25.7c0.1,-10.4 3.4,-19.2 10.6,-25.5s16.9,-9.5 28.9,-9.3l1.6,0l-0.5,56c7.2,0.1 12.8,-2.3 16.8,-7.1c4,-4.8 6.5,-9.5 6.5,-15.9c0.1,-8.8 -3.9,-15.2 -12.6,-20.1l5.7,-12c6.4,3.3 10.3,8.1 14.3,13.7s5.5,12 5.5,19.2zm-47.4,21.2l0.3,-40.8c-4.8,0 -8.8,2.3 -12,6.3c-3.3,4.1 -5,9.1 -4.9,14.3c0,4.8 1.5,9.6 4.7,12.8c2.9,4 7.1,6.6 11.9,7.4l0,0z" class="st10"/>
     <path id="svg_31" fill="#636363" d="m849.1,821.1c6.4,0.1 11.2,2.5 15.9,8.1c4,5.6 6.3,12 6.2,20.8c-0.1,7.2 -1.7,13.6 -5.8,19.2c-3.8,5.4 -9.1,9.6 -15.3,11.9l-4.6,-12.1c4,-1.6 8,-3.9 10.5,-7.9c2.4,-3.2 3.3,-7.2 3.3,-11.2s-0.7,-8 -2.3,-10.4c-1.1,-2.6 -3.6,-4.2 -6.4,-4.1c-4.8,0 -8,3.1 -10.5,10.3l-3.3,12c-3.3,13.6 -10.6,20.7 -20.2,20.6c-6.4,-0.1 -12,-2.5 -15.9,-8.1s-5.5,-12 -5.4,-20c-0.1,-6 1.7,-11.8 5,-16.8c3.2,-4.8 7.3,-8.7 12.1,-10.3l4.7,12c-3.2,1.6 -5.6,3.2 -7.3,6.3c-1.7,3.2 -2.5,6.8 -2.5,10.4c0,3.3 0.8,6.6 2.3,9.6c1.6,2.4 4,4 6.4,4c4,0 7.2,-3.9 8.9,-11.1l2.5,-11.2c4,-15 11.3,-22.1 21.7,-22z" class="st10"/>
     <path id="svg_32" fill="#636363" d="m870.2,781.3c0,5.6 -1.7,10.4 -5.7,14.3s-8,6.3 -14.5,6.3l-40,-0.3l-0.1,12.8l-12,-0.1l0.1,-12.8l-21.5,-0.2l0.1,-13.6l21.6,0.2l0.2,-17.6l12,0.1l-0.2,17.6l36,0.3c4.8,0 8,-0.7 9.6,-2.3c1.6,-1.7 2.5,-4 2.5,-6.4l0,-3.2c0,-0.8 -0.8,-1.6 -0.8,-3.2l12,-3.9c0.8,3.2 0.7,7.2 0.7,12z" class="st10"/>
     <path id="svg_33" fill="#636363" d="m833.6,761.8c-11.2,-0.1 -20,-3.4 -27.1,-10.6s-11.1,-16.1 -11,-26.5s4.2,-19.2 11.4,-26.3s16.1,-10.3 27.3,-10.2s20,3.4 27.1,10.6s11.1,16.1 11,26.5c0,10 -4.2,19.5 -11.4,26.3c-7.3,7.1 -16.1,10.2 -27.3,10.2zm0.1,-13.6c8,0.1 13.6,-2.3 18.5,-6.2c9.4,-8.8 9.8,-23.4 1.1,-32.8c-0.3,-0.3 -0.5,-0.5 -0.8,-0.8c-4.8,-4.8 -11.1,-6.5 -18.3,-6.6c-6.7,-0.1 -13.2,2.1 -18.4,6.2c-9.4,8.8 -9.8,23.5 -1.1,32.8c0.3,0.3 0.5,0.5 0.8,0.8c5,4.3 11.5,6.6 18.2,6.6z" class="st10"/>
    </g>
   </g>
  </g>
  <g transform="rotate(-180 958.698 1899.47)" id="svg_185">
   <g id="svg_151">
    <path id="svg_148" fill="#97E6C3" d="m1916.6,1847.56484c0.3,-0.1 0.6,0 0.8,0.1l0,17l-1,0l0.2,-17.1z" class="st0"/>
    <path id="svg_149" fill="#90CAF9" d="m445.7,1417.36484c36.4,0.3 68.7,11.8 96.6,35.5c25.4,21.6 42.1,48.8 47.8,81.4c10.3,58.8 -8.8,107.3 -56,143.9c-19.1,14.8 -41.2,23.7 -65.2,27.4c-7.5,1.2 -15,2.4 -22.6,2.2c-2.7,0.1 -5.2,-1.5 -6.1,-4c-1.1,-2.7 -1,-5.5 0.9,-7.5c2.3,-2.4 5.7,-2.1 8.8,-2.2c13.7,-0.5 27.1,-2.4 40,-7.2c15.6,-5.8 30.3,-13 42.8,-24.4c6.6,-6 12.2,-12.8 18.2,-19.3c15.5,-16.8 22.3,-37.1 27.3,-58.4c0.8,-3.6 1.5,-7.3 0,-10.8c-1.1,-2.4 1.8,-2.8 1.7,-4.8c-0.2,-3 0.5,-6.1 0,-9c-1.5,-8.8 -0.5,-17.9 -3,-26.7c-4.3,-15.5 -9.7,-30.6 -19,-43.8c-10.8,-15.4 -23.8,-28.7 -39.8,-38.7c-25.5,-15.9 -55.7,-22.8 -85.6,-19.6c-13,1.4 -25.4,4.1 -37.4,9.1c-14.6,6.2 -28.2,13.8 -40,24.9c-17,16 -29.6,34.6 -36.8,56.8c-3.7,11.1 -5.7,22.8 -6,34.5c0,1.8 -0.5,3.6 -0.6,5.4c-0.1,4.6 -2.9,6.5 -7.1,6.5c-3.9,0 -6.1,-2.9 -6.1,-7.9c0.1,-11.3 1.6,-22.5 4.4,-33.5c5.5,-21.2 15.1,-40.6 29.2,-57.4c23.8,-28.3 54.3,-45 90.6,-50.8c7.7,-1.2 15.3,-1.8 23,-1.6z" class="st1"/>
    <path id="svg_150" fill="#90CAF9" d="m198.5,2440.16484c-22,-0.5 -49.1,1 -76,-0.8c-11.5,-0.8 -21.6,-5.8 -30.8,-12.3c-14.1,-9.8 -23.6,-24.9 -26.4,-41.8c-2.9,-16.6 -1.2,-33.2 7.9,-48.2c14.1,-23.3 35,-33.8 61.7,-33.8c5.9,0 8.8,2.2 8.8,6.4s-4.1,7.2 -9.6,7c-29.7,-1.3 -55.2,21.8 -56.6,51.3c-1.5,31.6 21.2,58.1 51.7,58.7c38.1,0.8 76.3,0.3 114.5,0.3c11.5,0 23,0.2 34.5,-0.2c16.7,-0.5 29.3,-8.6 40,-21c8.8,-10 13.4,-23 12.6,-36.3c-0.8,-21.2 -12.2,-35.9 -29.6,-46.7c-8.9,-5.5 -18.9,-6.3 -29,-6.5c-5,-0.1 -8.7,-2.9 -8.6,-6.8c0.1,-3.7 3.1,-6 8,-6.3c36.4,-1.7 65.9,24.5 71.2,56.4c5.9,35.3 -15.2,68.8 -49.7,78.2c-8,2.2 -16.1,2.2 -24.1,2.3c-21.9,0.3 -43.8,0.1 -70.5,0.1z" class="st1"/>
   </g>
   <path id="svg_152" fill="#FCD539" d="m619,1902.66484l-0.2,17.1c-3.6,52.6 -48.4,96.6 -101,99.2c-3,0.2 -6,0.2 -9,0.2c-86.5,0 -172.9,0 -259.4,0c-3.1,0 -6.3,0.7 -8.8,-2.2c-3.2,-3.9 -1.7,-9.2 3.3,-10.3c2.3,-0.4 4.6,-0.6 6.9,-0.5c85.8,0 171.6,0 257.4,0c12.8,0 25.2,-1.6 37.1,-6.4c25,-10.2 42.9,-27.8 53.4,-52.7c5.6,-13.1 8,-27.4 7.2,-41.6c-1.8,-31.5 -15.3,-57 -41.2,-75.3c-14.1,-10.1 -30.8,-15.9 -48.1,-16.6c-2.2,0 -4.3,-0.2 -6.5,-0.6c-3.5,-0.8 -5.6,-3 -5.2,-6.7s2.7,-5.4 6.4,-5.5c26.9,-0.4 50.1,8.8 70.3,26.4c20.8,18.1 32.7,41 36.7,68c0.4,2.5 0.5,5 0.7,7.5z" class="st2"/>
   <path id="svg_153" fill="#F06292" d="m1619.3,1670.26484c-1.3,-16 2.2,-29.8 11.5,-41.8c10.4,-13.5 24.3,-20.7 41.3,-21.9s32.1,3.7 44.6,15.4c10.3,9.6 16.6,22.6 17.9,36.6c1.2,11.1 -0.9,22.3 1.9,33.2c4.3,16.7 15,27.9 31.5,32.5c16.2,4.5 30.8,0.6 43.4,-11c10.2,-9.4 14.4,-21.3 14.7,-34.8c0.1,-5.8 0,-11.7 0,-17.5c0,-4.1 1.8,-7 6,-6.8c3.8,0.2 7,2 6.8,6.8c-0.4,13.9 1.4,27.8 -4.2,41.3c-5.3,13 -15,23.8 -27.4,30.3c-13.2,7.3 -27.5,8.4 -41.7,4.6c-17.5,-4.7 -30.4,-15.7 -38.6,-32.1c-5.9,-11.8 -4.7,-24.3 -4.8,-36.8c0,-8 -1.1,-15.8 -4.7,-22.9c-8.9,-17.8 -26.7,-27.7 -45.4,-25.7c-21.4,2.3 -35.3,16.6 -39.4,35.5c-2,9.3 -1,18.9 -0.8,28.4c0.1,4.1 -1.6,6.4 -5.3,7.6s-7.1,-0.9 -7.3,-4.8c-0.2,-5.6 0,-11.3 0,-16.1z" class="st3"/>
   <path id="svg_154" fill="#F06292" d="m539.7,1785.46484c-1.3,-16 2.2,-29.8 11.5,-41.8c10.4,-13.5 24.3,-20.7 41.3,-21.9s32.1,3.7 44.6,15.4c10.3,9.6 16.6,22.6 17.9,36.6c1.2,11.1 -0.9,22.3 1.9,33.2c4.3,16.7 14.9,27.9 31.5,32.5c16.2,4.5 30.8,0.6 43.4,-11c10.2,-9.4 14.4,-21.3 14.7,-34.8c0.1,-5.8 0,-11.7 0,-17.5c0,-4.1 1.8,-7 6,-6.8c3.8,0.2 7,2 6.8,6.8c-0.5,13.9 1.4,27.8 -4.2,41.3c-5.3,13 -15,23.8 -27.4,30.3c-13.2,7.3 -27.5,8.4 -41.7,4.6c-17.5,-4.7 -30.4,-15.7 -38.6,-32.1c-5.9,-11.8 -4.7,-24.4 -4.8,-36.8c0,-8 -1.1,-15.8 -4.7,-22.9c-8.9,-17.8 -26.7,-27.7 -45.4,-25.7c-21.4,2.3 -35.3,16.6 -39.4,35.5c-2,9.3 -1,18.9 -0.8,28.4c0.1,4.1 -1.6,6.4 -5.3,7.6s-7.1,-0.9 -7.3,-4.8c-0.2,-5.7 0,-11.4 0,-16.1z" class="st3"/>
   <path id="svg_155" fill="#FA6542" d="m1221.5,1358.66484c3.6,16.3 12.1,29.8 23.9,41.3c17.1,16.6 37.8,25.1 61.7,25.1c35,0 69.9,0.3 104.9,-0.4s70.3,-30.4 78.5,-64.4c0.1,-0.5 0.1,-1 0.1,-1.5l14,0c-3.8,12.8 -8.7,25.2 -16.6,36.2c-15.7,21.8 -36.8,35.3 -62.8,41.5c-7,1.7 -14.1,1.7 -21.2,1.7c-37,-0.3 -74,1.2 -110.9,-0.8c-14,-0.7 -26.7,-6.4 -38.7,-13.4c-19.1,-11.1 -32.2,-27.8 -41.2,-47.5c-2.5,-5.5 -5.1,-11.3 -5.5,-17.6l13.8,-0.2z" class="st4"/>
   <path id="svg_156" fill="#F43A5F" d="m1917.4,1391.76484c-17.1,1.2 -32,-4.7 -45.6,-14.3c-6.4,-4.5 -13.1,-9 -16.4,-16.7l17,0c12.5,12.2 27.4,18.6 45,18l0,13z" class="st5"/>
   <path id="svg_157" fill="#F9785F" d="m128,1853.36484c0,36.5 -0.3,73 0.1,109.4c0.3,30 -19.1,55.8 -47.2,63c-20.5,5.2 -39.6,2.1 -56.9,-11.2c-12.3,-9.6 -20.3,-21.9 -22.8,-36.6c-3.7,-21.3 0.9,-41.1 16.9,-57.3c11.7,-11.9 26.1,-17.2 42.3,-18.7c0.3,0 0.7,0 1,0c5.2,-0.2 9.1,2.4 9.2,6.2s-4.1,7.5 -8.9,7.5c-14.3,-0.2 -25.8,5.8 -35.5,15.9c-20.7,21.5 -15.8,59.5 9.6,75.3c23.3,14.5 50.3,9.8 68.1,-10.9c8.9,-10.3 11.3,-23.3 11.3,-36.7c-0.1,-73.5 -0.1,-146.9 0,-220.4c0,-1.8 0,-3.7 0.1,-5.5c0.3,-3.3 1.5,-5.6 5.4,-5.6s6.4,1.4 7.1,5.3c0.2,1.7 0.3,3.3 0.2,5c0,38.4 0,76.8 0,115.3z" class="st6"/>
   <path id="svg_158" fill="#F77B63" d="m1914.8,1604.46484c0,28.7 0,57.3 0,86c0,6 -2.4,8.8 -7.2,8.5c-3,-0.2 -5,-1.6 -5.3,-4.8c-0.2,-2 -0.3,-4 -0.3,-6c0,-52.7 0,-105.3 0,-158c0,-12.8 -2,-25.2 -10,-35.8c-9,-11.8 -20.3,-19.2 -35.4,-22.1c-26.4,-5.2 -55,12.8 -60.7,41.8c-2,10.1 -1,20.6 -1,30.9c0,2 0,4 -0.1,6c-0.4,4.3 -3.9,6.2 -7.2,6.3s-5.4,-2.8 -5.4,-6.4c0,-9.3 0,-18.7 0,-28c-0.1,-20.1 8.1,-36.6 23.1,-49.3c14.8,-12.6 32.6,-17.3 51.8,-14.8c21.5,2.8 38,14.1 49.1,32.8c6.4,10.8 8.8,22.8 8.7,35.3c-0.2,26 -0.1,51.8 -0.1,77.6z" class="st7"/>
   <path id="svg_159" fill="#F77B63" d="m1794.4,1819.26484c18.4,0 33.8,0 49.1,0c4.1,0 7.4,1 8.1,5.6c0.7,4.2 -2.3,7.2 -7.4,7.2c-12.2,0.1 -24.3,-0.1 -36.5,0.1c-18.3,0.2 -36.7,-0.9 -55,0.6c-29.1,2.3 -52.8,15.4 -71.2,37.7c-14.4,17.5 -22.5,37.9 -23.4,60.8c-0.1,1.8 -0.2,3.7 -0.4,5.5c-0.4,3.9 -2.4,6.2 -6.4,6.3c-3.8,0.1 -6.9,-3 -7,-6.8c0,0 0,-0.1 0,-0.1c-0.4,-9.4 1.2,-18.7 3.4,-27.7c2.9,-12.1 7.8,-23.6 14.6,-34c19.3,-30.1 46.2,-48.6 81.7,-53.8c17.8,-2.7 35.7,-0.8 50.4,-1.4z" class="st7"/>
   <path id="svg_160" fill="#F9785F" d="m853.2,1719.66484c0,28.7 0,57.3 0,86c0,6 -2.5,8.8 -7.2,8.5c-3,-0.2 -5,-1.6 -5.3,-4.8c-0.2,-2 -0.3,-4 -0.3,-6c0,-52.7 0,-105.3 0,-158c0,-12.8 -2,-25.2 -10,-35.8c-9,-11.8 -20.3,-19.1 -35.4,-22.1c-26.4,-5.1 -55,12.8 -60.7,41.8c-2,10.1 -1,20.6 -1,30.9c0,2 0,4 -0.1,6c-0.4,4.3 -3.9,6.2 -7.2,6.3s-5.4,-2.8 -5.4,-6.4c0,-9.3 0,-18.7 0,-28c-0.1,-20.1 8.1,-36.6 23.1,-49.3c14.8,-12.6 32.6,-17.3 51.8,-14.8c21.5,2.9 38,14.1 49.1,32.8c6.4,10.8 8.8,22.8 8.7,35.3c-0.1,25.9 -0.1,51.7 -0.1,77.6z" class="st6"/>
   <path id="svg_161" fill="#F9785F" d="m505.8,1934.46484c18.5,0 33.8,0 49.1,0c4.1,0 7.4,1 8.1,5.6c0.7,4.2 -2.3,7.2 -7.4,7.2c-12.2,0.1 -24.3,-0.1 -36.5,0.1c-18.3,0.2 -36.7,-0.9 -55,0.6c-29.1,2.3 -52.8,15.4 -71.2,37.7c-14.4,17.5 -22.5,37.9 -23.4,60.8c-0.1,1.8 -0.2,3.7 -0.4,5.5c-0.4,3.9 -2.4,6.2 -6.4,6.3c-3.8,0.1 -6.9,-3 -7,-6.8c0,0 0,-0.1 0,-0.1c-0.4,-9.4 1.2,-18.7 3.4,-27.7c2.9,-12.1 7.8,-23.6 14.6,-34c19.3,-30.1 46.2,-48.6 81.7,-53.8c17.9,-2.8 35.8,-0.8 50.4,-1.4z" class="st6"/>
   <path id="svg_162" fill="#AED581" d="m1916.6,1847.56484l-0.2,17.1c-3.6,52.6 -48.4,96.6 -101,99.2c-3,0.2 -6,0.2 -9,0.2c-86.5,0 -172.9,0 -259.4,0c-3,0 -6.3,0.7 -8.8,-2.2c-3.3,-3.9 -1.7,-9.2 3.3,-10.3c2.3,-0.4 4.6,-0.6 6.9,-0.5c85.8,0 171.6,0 257.4,0c12.8,0 25.2,-1.6 37.1,-6.4c25,-10.2 42.9,-27.8 53.4,-52.7c5.6,-13.1 8,-27.4 7.2,-41.6c-1.8,-31.5 -15.3,-57 -41.2,-75.3c-14.1,-10.1 -30.8,-15.9 -48.1,-16.6c-2.2,0 -4.3,-0.2 -6.4,-0.6c-3.4,-0.8 -5.6,-3 -5.2,-6.7s2.7,-5.4 6.4,-5.5c26.9,-0.4 50.1,8.8 70.3,26.4c20.8,18.1 32.7,40.9 36.7,68c0.3,2.5 0.4,5 0.6,7.5z" class="st8"/>
   <path id="svg_163" fill="#AED581" d="m221.2,2244.56484l0,101c0,3.7 0.1,7.3 -3.8,9.6s-8,0.7 -8.9,-3.8c-0.4,-2.5 -0.6,-4.9 -0.5,-7.4c0,-64 0,-128 0,-191.9c0,-12.4 -2.4,-24.2 -9.2,-34.6c-9.9,-15 -23.6,-24 -41.7,-27c-19.9,-3.3 -36.9,2.2 -51,15.7c-12.2,11.6 -18,26.4 -17.9,43.7c0.3,28.7 22.9,52.9 49.4,57c3.1,0.5 6.2,0.7 9.4,0.8c4.3,0.2 8.1,3.4 7.6,6.9c-0.6,4.3 -3.3,6.2 -7.6,6.2c-23.3,-0.5 -42.1,-9.6 -56.7,-28c-12.6,-15.9 -16.3,-33.7 -14.5,-53.2c1.3,-14.6 7.4,-27.1 17,-38.2c16.3,-19 37.1,-26.3 61.3,-24.6c32.7,2.3 59.7,26.5 65.7,58.7c1.1,6.6 1.6,13.2 1.5,19.9c0,29.6 -0.1,59.4 -0.1,89.2z" class="st8"/>
   <path id="svg_164" fill="#AED581" d="m1742.5,2032.96484c31.7,0 63.3,-0.1 95,0c38.1,0.2 66.8,27.3 68.2,65.3c1,27.1 -10.9,48.3 -34.7,61.4c-23.5,13 -47,11.1 -69.4,-3.7c-16.5,-10.9 -25,-26.6 -28.2,-45.8c-0.6,-3.2 -0.9,-6.5 -1,-9.8c-0.1,-3.4 2,-5.3 4.8,-5.8c3.4,-0.7 6.8,-0.1 8.2,3.8c0.5,1.8 0.7,3.6 0.8,5.4c1.6,29.1 25.6,51.6 54.3,51c29,-0.7 51.8,-24 52.3,-53.6c0.4,-29.4 -21.9,-53.8 -50.9,-54.8c-17,-0.6 -34,-0.2 -51,-0.2c-49.2,0 -98.3,0 -147.4,0c-2.2,0 -4.3,-0.1 -6.5,-0.4c-3.1,-0.3 -5.5,-2.9 -5.4,-6c-0.2,-3.3 2.2,-6.2 5.5,-6.5c1.8,-0.2 3.6,-0.4 5.5,-0.3c33.3,0.1 66.6,0 99.9,0z" class="st8"/>
   <path id="svg_165" fill="#AED581" d="m443.2,1626.96484c-37.7,0.4 -68.5,-34.4 -67.1,-71.9c1.4,-39.7 36.9,-68.4 72,-66.7c38.9,1.9 68.4,33.4 66.8,72s-33.4,68.1 -71.7,66.6zm58.7,-68.9c0.2,-31.1 -24.9,-56.5 -56,-56.7s-56.5,24.9 -56.7,56c-0.2,31 24.7,56.3 55.7,56.7c30.9,0.5 56.4,-24.1 56.9,-55.1c0.1,-0.3 0.1,-0.6 0.1,-0.9l0,0z" class="st8"/>
   <path id="svg_166" fill="#AED581" d="m380.2,1788.56484c-0.5,11.5 1.2,25.4 -2.5,38.9c-4.3,15.8 -13.1,28.5 -27,37.3c-20.6,13.1 -42.6,14.4 -63.9,3.6c-22.9,-11.7 -34.4,-31.5 -34.7,-57.8c-0.4,-32 25.3,-58.5 54.3,-62.7c3.3,-0.5 6.6,-0.1 10,-0.3c3.9,-0.2 5.6,2.4 6,5.4c0.6,3.1 -1.5,6.1 -4.6,6.6c0,0 0,0 -0.1,0c-5.9,1.3 -12,1.4 -17.9,3.3c-20.4,6.5 -34.6,27 -34.7,47.7c-0.3,24.6 17,45.9 41.2,50.7c14.4,2.8 27.9,-0.6 40,-9.7c14.2,-10.6 20.2,-25 20.5,-42s0.1,-34 0.1,-51c0,-1.7 0,-3.3 0.2,-5c0.4,-3.7 1.6,-6.2 6.1,-6.1s6.5,2.4 6.8,6.3c0.3,4.3 0.2,8.6 0.2,13c0,6.6 0,13.1 0,21.8z" class="st8"/>
   <path id="svg_167" fill="#AED581" d="m1847.6,2293.86484c-15.6,0.6 -30.1,-6.4 -41.9,-18c-9.9,-9.8 -16.8,-22 -18.2,-36.5c-0.3,-2.8 -1.4,-5.4 -1.2,-8.3c0.3,-4 1.4,-7.1 6,-7.4c5,-0.3 7.5,1.6 7.7,6.9c0.2,10.9 3.9,21.4 10.4,30.1c16.8,22.4 48.6,26.9 71,10.1c11.9,-9 19.3,-22.8 20.2,-37.7c0,-0.8 0,-1.7 0.1,-2.5c0.5,-4.8 3.3,-7.7 7,-7.5s6.3,3.4 6.2,8.2c-0.8,35.2 -30.8,63.7 -67.3,62.6z" class="st8"/>
   <path id="svg_168" fill="#AED581" d="m68.6,1717.16484c0,-30 0,-60 0,-89.9c0,-6.3 1.2,-7.5 6.4,-7.6c4.8,0 6.4,3 6.6,7c0.2,5.1 0,10.3 0,15.5c0,54.8 0,109.5 0,164.3c0,4 -0.2,7.6 -4.8,9.3c-4,1.4 -7.2,0 -8,-4.2c-0.2,-1.7 -0.3,-3.3 -0.2,-5c0,-29.8 0,-59.6 0,-89.4z" class="st8"/>
   <path id="svg_169" fill="#AED581" d="m577,2148.16484c31.7,0 63.3,-0.1 95,0c38.1,0.2 66.8,27.3 68.2,65.3c1,27.1 -10.9,48.3 -34.7,61.4c-23.5,13 -47,11.1 -69.4,-3.7c-16.5,-10.9 -25,-26.6 -28.2,-45.8c-0.6,-3.2 -0.9,-6.5 -1,-9.8c-0.1,-3.4 2,-5.3 4.9,-5.8c3.4,-0.7 6.8,-0.1 8.2,3.8c0.5,1.8 0.8,3.6 0.8,5.4c1.6,29.1 25.6,51.6 54.3,51c29,-0.7 51.8,-24 52.2,-53.6c0.4,-29.4 -21.9,-53.8 -50.9,-54.8c-17,-0.6 -34,-0.2 -51,-0.2c-49.2,0 -98.3,0 -147.5,0c-2.2,0 -4.3,-0.1 -6.5,-0.4c-3.1,-0.3 -5.5,-2.9 -5.4,-6c-0.2,-3.3 2.2,-6.2 5.5,-6.5c1.8,-0.2 3.6,-0.4 5.5,-0.3c33.3,0 66.6,0 100,0z" class="st8"/>
   <path id="svg_170" fill="#AED581" d="m560.1,2412.96484c-15.6,0.6 -30.1,-6.4 -41.9,-18c-9.9,-9.8 -16.8,-22 -18.2,-36.5c-0.3,-2.8 -1.4,-5.4 -1.2,-8.3c0.3,-4 1.4,-7.1 6,-7.4c5,-0.3 7.5,1.6 7.6,6.9c0.2,10.9 3.8,21.5 10.4,30.2c16.8,22.4 48.7,26.9 71,10.1c11.9,-9 19.3,-22.7 20.2,-37.6c0,-0.8 0,-1.7 0.1,-2.5c0.5,-4.8 3.3,-7.7 7,-7.5s6.3,3.4 6.2,8.2c-0.7,35 -30.7,63.6 -67.2,62.4z" class="st8"/>
   <g id="svg_174">
    <path id="svg_171" fill="#F9785F" d="m357.4,2173.66484c36.5,0 73,0.3 109.4,-0.1c30,-0.3 55.8,19.1 63,47.2c5.2,20.5 2.1,39.6 -11.2,56.9c-9.5,12.3 -21.9,20.3 -36.6,22.8c-21.3,3.7 -41.1,-0.9 -57.4,-16.9c-11.9,-11.7 -17.2,-26.1 -18.7,-42.3c0,-0.3 0,-0.7 0,-1c-0.2,-5.2 2.4,-9.1 6.2,-9.3s7.6,4.1 7.5,8.9c-0.2,14.3 5.8,25.8 15.9,35.5c21.5,20.7 59.5,15.8 75.3,-9.6c14.5,-23.3 9.8,-50.3 -10.9,-68.1c-10.3,-8.9 -23.3,-11.3 -36.7,-11.3c-73.5,0.1 -146.9,0.1 -220.4,0c-1.8,0 -3.7,0 -5.5,-0.1c-3.3,-0.3 -5.6,-1.5 -5.6,-5.4s1.4,-6.4 5.3,-7.1c1.7,-0.2 3.3,-0.3 5,-0.2l115.4,0.1z" class="st6"/>
    <path id="svg_172" fill="#F9785F" d="m223.7,1448.36484c28.7,0 57.3,0 86,0c6,0 8.8,2.5 8.5,7.2c-0.2,3 -1.6,5 -4.8,5.3c-2,0.2 -4,0.3 -6,0.3c-52.7,0 -105.3,0 -158,0c-12.8,0 -25.2,2 -35.8,10c-11.8,9.1 -19.2,20.4 -22.1,35.5c-5.2,26.4 12.8,55 41.8,60.7c10.1,2 20.6,1 30.9,1c2,0 4,-0.1 6,0.1c4.3,0.4 6.2,3.9 6.3,7.2s-2.8,5.4 -6.4,5.4c-9.3,0 -18.7,0 -28,0c-20.1,0.1 -36.6,-8.1 -49.3,-23.1c-12.5,-14.8 -17.3,-32.6 -14.7,-51.8c2.8,-21.5 14.1,-38 32.8,-49.1c10.8,-6.4 22.8,-8.8 35.3,-8.7c25.9,0.1 51.7,0 77.5,0z" class="st6"/>
    <path id="svg_173" fill="#F9785F" d="m438.5,1795.76484c0,-18.5 0,-33.8 0,-49.1c0,-4.1 1,-7.4 5.6,-8.1c4.2,-0.7 7.2,2.3 7.2,7.4c0.1,12.2 -0.1,24.3 0.1,36.5c0.2,18.3 -0.9,36.7 0.6,55c2.3,29.1 15.4,52.8 37.7,71.2c17.5,14.4 37.9,22.5 60.8,23.4c1.8,0.1 3.7,0.2 5.5,0.4c3.9,0.4 6.2,2.4 6.3,6.4c0.1,3.8 -3,6.9 -6.8,7c0,0 -0.1,0 -0.1,0c-9.4,0.4 -18.7,-1.2 -27.7,-3.4c-12.1,-2.9 -23.6,-7.8 -34,-14.6c-30.1,-19.4 -48.6,-46.2 -53.8,-81.8c-2.7,-17.7 -0.8,-35.6 -1.4,-50.3z" class="st6"/>
   </g>
   <g id="svg_177">
    <path id="svg_175" stroke-miterlimit="10" stroke-width="16" stroke="#FCD539" fill="none" d="m628.2,2183.76484l123.8,0c31.6,-0.7 60.1,-3.8 60.1,-3.8c65.4,-10.4 105.8,-60.2 105.8,-60.2c42.8,-38.5 44.7,-100.7 44.7,-100.7l0,-377.2c-8.8,-40.8 -43.9,-75.8 -43.9,-75.8l-320.6,-186.9c-39.1,-19.2 -105,0 -105,0s-261.4,156.2 -309.4,180.7s-59,98.3 -59,98.3l0,237.5c-4.9,48.1 12.3,96.9 12.3,96.9s0.8,14.5 -4,20.1l-113.5,105.4" class="st9"/>
    <path id="svg_176" stroke-miterlimit="10" stroke-width="16" stroke="#FCD539" fill="none" d="m229.6,2114.76484c0,0 65.7,74.5 180.5,66.3s160.6,-19.7 244.2,-162.7c0,0 17.3,-136.4 127.7,-139.7c0,0 13.6,-2.4 13.9,-26.2c0,0 2.4,-101.3 -84.7,-163.2s-195.7,-54.1 -264,13.4l-314.2,310" class="st9"/>
   </g>
   <g id="svg_184">
    <g id="svg_183">
     <path id="svg_178" fill="#636363" d="m867.2,2399.06484l-0.1,13.6l-104.8,-0.9l0.1,-16l82,-50.5l0,-0.8l-20,0.6l-61.6,-0.5l0.1,-13.6l104.8,0.9l-0.1,14.4l-86,52l0,0.8l20,-0.6l65.6,0.6z" class="st10"/>
     <path id="svg_179" fill="#636363" d="m870.6,2280.66484c-0.1,10.4 -4.2,19.2 -11.4,26.3s-16.1,10.3 -27.3,10.2s-20,-3.4 -27.1,-9.8c-7.3,-6.5 -11.3,-15.9 -11,-25.7c0.1,-10.4 3.4,-19.2 10.6,-25.5s16.9,-9.5 28.9,-9.3l1.6,0l-0.5,56c7.2,0.1 12.8,-2.3 16.8,-7.1c4,-4.8 6.5,-9.5 6.5,-15.9c0.1,-8.8 -3.9,-15.2 -12.6,-20.1l5.7,-12c6.4,3.3 10.3,8.1 14.3,13.7s5.5,12 5.5,19.2zm-47.4,21.2l0.3,-40.8c-4.8,0 -8.8,2.3 -12,6.3c-3.3,4.1 -5,9.1 -4.9,14.3c0,4.8 1.5,9.6 4.7,12.8c2.9,4 7.1,6.6 11.9,7.4l0,0z" class="st10"/>
     <path id="svg_180" fill="#636363" d="m849.1,2179.76484c6.4,0.1 11.2,2.5 15.9,8.1c4,5.6 6.3,12 6.2,20.8c-0.1,7.2 -1.7,13.6 -5.8,19.2c-3.8,5.4 -9.1,9.6 -15.3,11.9l-4.6,-12.1c4,-1.6 8,-3.9 10.5,-7.9c2.4,-3.2 3.3,-7.2 3.3,-11.2s-0.7,-8 -2.3,-10.4c-1.1,-2.6 -3.6,-4.2 -6.4,-4.1c-4.8,0 -8,3.1 -10.5,10.3l-3.3,12c-3.3,13.6 -10.6,20.7 -20.2,20.6c-6.4,-0.1 -12,-2.5 -15.9,-8.1s-5.5,-12 -5.4,-20c-0.1,-6 1.7,-11.8 5,-16.8c3.2,-4.8 7.3,-8.7 12.1,-10.3l4.7,12c-3.2,1.6 -5.6,3.2 -7.3,6.3c-1.7,3.2 -2.5,6.8 -2.5,10.4c0,3.3 0.8,6.6 2.3,9.6c1.6,2.4 4,4 6.4,4c4,0 7.2,-3.9 8.9,-11.1l2.5,-11.2c4,-15 11.3,-22.1 21.7,-22z" class="st10"/>
     <path id="svg_181" fill="#636363" d="m870.2,2139.96484c0,5.6 -1.7,10.4 -5.7,14.3s-8,6.3 -14.5,6.3l-40,-0.3l-0.1,12.8l-12,-0.1l0.1,-12.8l-21.5,-0.2l0.1,-13.6l21.6,0.2l0.2,-17.6l12,0.1l-0.2,17.6l36,0.3c4.8,0 8,-0.7 9.6,-2.3c1.6,-1.7 2.5,-4 2.5,-6.4l0,-3.2c0,-0.8 -0.8,-1.6 -0.8,-3.2l12,-3.9c0.8,3.2 0.7,7.2 0.7,12z" class="st10"/>
     <path id="svg_182" fill="#636363" d="m833.6,2120.46484c-11.2,-0.1 -20,-3.4 -27.1,-10.6s-11.1,-16.1 -11,-26.5s4.2,-19.2 11.4,-26.3s16.1,-10.3 27.3,-10.2s20,3.4 27.1,10.6s11.1,16.1 11,26.5c0,10 -4.2,19.5 -11.4,26.3c-7.3,7.1 -16.1,10.2 -27.3,10.2zm0.1,-13.6c8,0.1 13.6,-2.3 18.5,-6.2c9.4,-8.8 9.8,-23.4 1.1,-32.8c-0.3,-0.3 -0.5,-0.5 -0.8,-0.8c-4.8,-4.8 -11.1,-6.5 -18.3,-6.6c-6.7,-0.1 -13.2,2.1 -18.4,6.2c-9.4,8.8 -9.8,23.5 -1.1,32.8c0.3,0.3 0.5,0.5 0.8,0.8c5,4.3 11.5,6.6 18.2,6.6z" class="st10"/>
    </g>
   </g>
  </g>
  <g id="svg_223">
   <g id="svg_189">
    <path id="svg_186" fill="#97E6C3" d="m1916.6,2951.56295c0.3,-0.1 0.6,0 0.8,0.1l0,17l-1,0l0.2,-17.1z" class="st0"/>
    <path id="svg_187" fill="#90CAF9" d="m445.7,2521.36295c36.4,0.3 68.7,11.8 96.6,35.5c25.4,21.6 42.1,48.8 47.8,81.4c10.3,58.8 -8.8,107.3 -56,143.9c-19.1,14.8 -41.2,23.7 -65.2,27.4c-7.5,1.2 -15,2.4 -22.6,2.2c-2.7,0.1 -5.2,-1.5 -6.1,-4c-1.1,-2.7 -1,-5.5 0.9,-7.5c2.3,-2.4 5.7,-2.1 8.8,-2.2c13.7,-0.5 27.1,-2.4 40,-7.2c15.6,-5.8 30.3,-13 42.8,-24.4c6.6,-6 12.2,-12.8 18.2,-19.3c15.5,-16.8 22.3,-37.1 27.3,-58.4c0.8,-3.6 1.5,-7.3 0,-10.8c-1.1,-2.4 1.8,-2.8 1.7,-4.8c-0.2,-3 0.5,-6.1 0,-9c-1.5,-8.8 -0.5,-17.9 -3,-26.7c-4.3,-15.5 -9.7,-30.6 -19,-43.8c-10.8,-15.4 -23.8,-28.7 -39.8,-38.7c-25.5,-15.9 -55.7,-22.8 -85.6,-19.6c-13,1.4 -25.4,4.1 -37.4,9.1c-14.6,6.2 -28.2,13.8 -40,24.9c-17,16 -29.6,34.6 -36.8,56.8c-3.7,11.1 -5.7,22.8 -6,34.5c0,1.8 -0.5,3.6 -0.6,5.4c-0.1,4.6 -2.9,6.5 -7.1,6.5c-3.9,0 -6.1,-2.9 -6.1,-7.9c0.1,-11.3 1.6,-22.5 4.4,-33.5c5.5,-21.2 15.1,-40.6 29.2,-57.4c23.8,-28.3 54.3,-45 90.6,-50.8c7.7,-1.2 15.3,-1.8 23,-1.6z" class="st1"/>
    <path id="svg_188" fill="#90CAF9" d="m198.5,3544.16295c-22,-0.5 -49.1,1 -76,-0.8c-11.5,-0.8 -21.6,-5.8 -30.8,-12.3c-14.1,-9.8 -23.6,-24.9 -26.4,-41.8c-2.9,-16.6 -1.2,-33.2 7.9,-48.2c14.1,-23.3 35,-33.8 61.7,-33.8c5.9,0 8.8,2.2 8.8,6.4s-4.1,7.2 -9.6,7c-29.7,-1.3 -55.2,21.8 -56.6,51.3c-1.5,31.6 21.2,58.1 51.7,58.7c38.1,0.8 76.3,0.3 114.5,0.3c11.5,0 23,0.2 34.5,-0.2c16.7,-0.5 29.3,-8.6 40,-21c8.8,-10 13.4,-23 12.6,-36.3c-0.8,-21.2 -12.2,-35.9 -29.6,-46.7c-8.9,-5.5 -18.9,-6.3 -29,-6.5c-5,-0.1 -8.7,-2.9 -8.6,-6.8c0.1,-3.7 3.1,-6 8,-6.3c36.4,-1.7 65.9,24.5 71.2,56.4c5.9,35.3 -15.2,68.8 -49.7,78.2c-8,2.2 -16.1,2.2 -24.1,2.3c-21.9,0.3 -43.8,0.1 -70.5,0.1z" class="st1"/>
   </g>
   <path id="svg_190" fill="#FCD539" d="m619,3006.66295l-0.2,17.1c-3.6,52.6 -48.4,96.6 -101,99.2c-3,0.2 -6,0.2 -9,0.2c-86.5,0 -172.9,0 -259.4,0c-3.1,0 -6.3,0.7 -8.8,-2.2c-3.2,-3.9 -1.7,-9.2 3.3,-10.3c2.3,-0.4 4.6,-0.6 6.9,-0.5c85.8,0 171.6,0 257.4,0c12.8,0 25.2,-1.6 37.1,-6.4c25,-10.2 42.9,-27.8 53.4,-52.7c5.6,-13.1 8,-27.4 7.2,-41.6c-1.8,-31.5 -15.3,-57 -41.2,-75.3c-14.1,-10.1 -30.8,-15.9 -48.1,-16.6c-2.2,0 -4.3,-0.2 -6.5,-0.6c-3.5,-0.8 -5.6,-3 -5.2,-6.7s2.7,-5.4 6.4,-5.5c26.9,-0.4 50.1,8.8 70.3,26.4c20.8,18.1 32.7,41 36.7,68c0.4,2.5 0.5,5 0.7,7.5z" class="st2"/>
   <path id="svg_191" fill="#F06292" d="m1619.3,2774.26295c-1.3,-16 2.2,-29.8 11.5,-41.8c10.4,-13.5 24.3,-20.7 41.3,-21.9s32.1,3.7 44.6,15.4c10.3,9.6 16.6,22.6 17.9,36.6c1.2,11.1 -0.9,22.3 1.9,33.2c4.3,16.7 15,27.9 31.5,32.5c16.2,4.5 30.8,0.6 43.4,-11c10.2,-9.4 14.4,-21.3 14.7,-34.8c0.1,-5.8 0,-11.7 0,-17.5c0,-4.1 1.8,-7 6,-6.8c3.8,0.2 7,2 6.8,6.8c-0.4,13.9 1.4,27.8 -4.2,41.3c-5.3,13 -15,23.8 -27.4,30.3c-13.2,7.3 -27.5,8.4 -41.7,4.6c-17.5,-4.7 -30.4,-15.7 -38.6,-32.1c-5.9,-11.8 -4.7,-24.3 -4.8,-36.8c0,-8 -1.1,-15.8 -4.7,-22.9c-8.9,-17.8 -26.7,-27.7 -45.4,-25.7c-21.4,2.3 -35.3,16.6 -39.4,35.5c-2,9.3 -1,18.9 -0.8,28.4c0.1,4.1 -1.6,6.4 -5.3,7.6s-7.1,-0.9 -7.3,-4.8c-0.2,-5.6 0,-11.3 0,-16.1z" class="st3"/>
   <path id="svg_192" fill="#F06292" d="m539.7,2889.46295c-1.3,-16 2.2,-29.8 11.5,-41.8c10.4,-13.5 24.3,-20.7 41.3,-21.9s32.1,3.7 44.6,15.4c10.3,9.6 16.6,22.6 17.9,36.6c1.2,11.1 -0.9,22.3 1.9,33.2c4.3,16.7 14.9,27.9 31.5,32.5c16.2,4.5 30.8,0.6 43.4,-11c10.2,-9.4 14.4,-21.3 14.7,-34.8c0.1,-5.8 0,-11.7 0,-17.5c0,-4.1 1.8,-7 6,-6.8c3.8,0.2 7,2 6.8,6.8c-0.5,13.9 1.4,27.8 -4.2,41.3c-5.3,13 -15,23.8 -27.4,30.3c-13.2,7.3 -27.5,8.4 -41.7,4.6c-17.5,-4.7 -30.4,-15.7 -38.6,-32.1c-5.9,-11.8 -4.7,-24.4 -4.8,-36.8c0,-8 -1.1,-15.8 -4.7,-22.9c-8.9,-17.8 -26.7,-27.7 -45.4,-25.7c-21.4,2.3 -35.3,16.6 -39.4,35.5c-2,9.3 -1,18.9 -0.8,28.4c0.1,4.1 -1.6,6.4 -5.3,7.6s-7.1,-0.9 -7.3,-4.8c-0.2,-5.7 0,-11.4 0,-16.1z" class="st3"/>
   <path id="svg_193" fill="#FA6542" d="m1221.5,2462.66295c3.6,16.3 12.1,29.8 23.9,41.3c17.1,16.6 37.8,25.1 61.7,25.1c35,0 69.9,0.3 104.9,-0.4s70.3,-30.4 78.5,-64.4c0.1,-0.5 0.1,-1 0.1,-1.5l14,0c-3.8,12.8 -8.7,25.2 -16.6,36.2c-15.7,21.8 -36.8,35.3 -62.8,41.5c-7,1.7 -14.1,1.7 -21.2,1.7c-37,-0.3 -74,1.2 -110.9,-0.8c-14,-0.7 -26.7,-6.4 -38.7,-13.4c-19.1,-11.1 -32.2,-27.8 -41.2,-47.5c-2.5,-5.5 -5.1,-11.3 -5.5,-17.6l13.8,-0.2z" class="st4"/>
   <path id="svg_194" fill="#F43A5F" d="m1917.4,2495.76295c-17.1,1.2 -32,-4.7 -45.6,-14.3c-6.4,-4.5 -13.1,-9 -16.4,-16.7l17,0c12.5,12.2 27.4,18.6 45,18l0,13z" class="st5"/>
   <path id="svg_195" fill="#F9785F" d="m128,2957.36295c0,36.5 -0.3,73 0.1,109.4c0.3,30 -19.1,55.8 -47.2,63c-20.5,5.2 -39.6,2.1 -56.9,-11.2c-12.3,-9.6 -20.3,-21.9 -22.8,-36.6c-3.7,-21.3 0.9,-41.1 16.9,-57.3c11.7,-11.9 26.1,-17.2 42.3,-18.7c0.3,0 0.7,0 1,0c5.2,-0.2 9.1,2.4 9.2,6.2s-4.1,7.5 -8.9,7.5c-14.3,-0.2 -25.8,5.8 -35.5,15.9c-20.7,21.5 -15.8,59.5 9.6,75.3c23.3,14.5 50.3,9.8 68.1,-10.9c8.9,-10.3 11.3,-23.3 11.3,-36.7c-0.1,-73.5 -0.1,-146.9 0,-220.4c0,-1.8 0,-3.7 0.1,-5.5c0.3,-3.3 1.5,-5.6 5.4,-5.6s6.4,1.4 7.1,5.3c0.2,1.7 0.3,3.3 0.2,5c0,38.4 0,76.8 0,115.3z" class="st6"/>
   <path id="svg_196" fill="#F77B63" d="m1914.8,2708.46295c0,28.7 0,57.3 0,86c0,6 -2.4,8.8 -7.2,8.5c-3,-0.2 -5,-1.6 -5.3,-4.8c-0.2,-2 -0.3,-4 -0.3,-6c0,-52.7 0,-105.3 0,-158c0,-12.8 -2,-25.2 -10,-35.8c-9,-11.8 -20.3,-19.2 -35.4,-22.1c-26.4,-5.2 -55,12.8 -60.7,41.8c-2,10.1 -1,20.6 -1,30.9c0,2 0,4 -0.1,6c-0.4,4.3 -3.9,6.2 -7.2,6.3s-5.4,-2.8 -5.4,-6.4c0,-9.3 0,-18.7 0,-28c-0.1,-20.1 8.1,-36.6 23.1,-49.3c14.8,-12.6 32.6,-17.3 51.8,-14.8c21.5,2.8 38,14.1 49.1,32.8c6.4,10.8 8.8,22.8 8.7,35.3c-0.2,26 -0.1,51.8 -0.1,77.6z" class="st7"/>
   <path id="svg_197" fill="#F77B63" d="m1794.4,2923.26295c18.4,0 33.8,0 49.1,0c4.1,0 7.4,1 8.1,5.6c0.7,4.2 -2.3,7.2 -7.4,7.2c-12.2,0.1 -24.3,-0.1 -36.5,0.1c-18.3,0.2 -36.7,-0.9 -55,0.6c-29.1,2.3 -52.8,15.4 -71.2,37.7c-14.4,17.5 -22.5,37.9 -23.4,60.8c-0.1,1.8 -0.2,3.7 -0.4,5.5c-0.4,3.9 -2.4,6.2 -6.4,6.3c-3.8,0.1 -6.9,-3 -7,-6.8c0,0 0,-0.1 0,-0.1c-0.4,-9.4 1.2,-18.7 3.4,-27.7c2.9,-12.1 7.8,-23.6 14.6,-34c19.3,-30.1 46.2,-48.6 81.7,-53.8c17.8,-2.7 35.7,-0.8 50.4,-1.4z" class="st7"/>
   <path id="svg_198" fill="#F9785F" d="m853.2,2823.66295c0,28.7 0,57.3 0,86c0,6 -2.5,8.8 -7.2,8.5c-3,-0.2 -5,-1.6 -5.3,-4.8c-0.2,-2 -0.3,-4 -0.3,-6c0,-52.7 0,-105.3 0,-158c0,-12.8 -2,-25.2 -10,-35.8c-9,-11.8 -20.3,-19.1 -35.4,-22.1c-26.4,-5.1 -55,12.8 -60.7,41.8c-2,10.1 -1,20.6 -1,30.9c0,2 0,4 -0.1,6c-0.4,4.3 -3.9,6.2 -7.2,6.3s-5.4,-2.8 -5.4,-6.4c0,-9.3 0,-18.7 0,-28c-0.1,-20.1 8.1,-36.6 23.1,-49.3c14.8,-12.6 32.6,-17.3 51.8,-14.8c21.5,2.9 38,14.1 49.1,32.8c6.4,10.8 8.8,22.8 8.7,35.3c-0.1,25.9 -0.1,51.7 -0.1,77.6z" class="st6"/>
   <path id="svg_199" fill="#F9785F" d="m505.8,3038.46295c18.5,0 33.8,0 49.1,0c4.1,0 7.4,1 8.1,5.6c0.7,4.2 -2.3,7.2 -7.4,7.2c-12.2,0.1 -24.3,-0.1 -36.5,0.1c-18.3,0.2 -36.7,-0.9 -55,0.6c-29.1,2.3 -52.8,15.4 -71.2,37.7c-14.4,17.5 -22.5,37.9 -23.4,60.8c-0.1,1.8 -0.2,3.7 -0.4,5.5c-0.4,3.9 -2.4,6.2 -6.4,6.3c-3.8,0.1 -6.9,-3 -7,-6.8c0,0 0,-0.1 0,-0.1c-0.4,-9.4 1.2,-18.7 3.4,-27.7c2.9,-12.1 7.8,-23.6 14.6,-34c19.3,-30.1 46.2,-48.6 81.7,-53.8c17.9,-2.8 35.8,-0.8 50.4,-1.4z" class="st6"/>
   <path id="svg_200" fill="#AED581" d="m1916.6,2951.56295l-0.2,17.1c-3.6,52.6 -48.4,96.6 -101,99.2c-3,0.2 -6,0.2 -9,0.2c-86.5,0 -172.9,0 -259.4,0c-3,0 -6.3,0.7 -8.8,-2.2c-3.3,-3.9 -1.7,-9.2 3.3,-10.3c2.3,-0.4 4.6,-0.6 6.9,-0.5c85.8,0 171.6,0 257.4,0c12.8,0 25.2,-1.6 37.1,-6.4c25,-10.2 42.9,-27.8 53.4,-52.7c5.6,-13.1 8,-27.4 7.2,-41.6c-1.8,-31.5 -15.3,-57 -41.2,-75.3c-14.1,-10.1 -30.8,-15.9 -48.1,-16.6c-2.2,0 -4.3,-0.2 -6.4,-0.6c-3.4,-0.8 -5.6,-3 -5.2,-6.7s2.7,-5.4 6.4,-5.5c26.9,-0.4 50.1,8.8 70.3,26.4c20.8,18.1 32.7,40.9 36.7,68c0.3,2.5 0.4,5 0.6,7.5z" class="st8"/>
   <path id="svg_201" fill="#AED581" d="m221.2,3348.56295l0,101c0,3.7 0.1,7.3 -3.8,9.6s-8,0.7 -8.9,-3.8c-0.4,-2.5 -0.6,-4.9 -0.5,-7.4c0,-64 0,-128 0,-191.9c0,-12.4 -2.4,-24.2 -9.2,-34.6c-9.9,-15 -23.6,-24 -41.7,-27c-19.9,-3.3 -36.9,2.2 -51,15.7c-12.2,11.6 -18,26.4 -17.9,43.7c0.3,28.7 22.9,52.9 49.4,57c3.1,0.5 6.2,0.7 9.4,0.8c4.3,0.2 8.1,3.4 7.6,6.9c-0.6,4.3 -3.3,6.2 -7.6,6.2c-23.3,-0.5 -42.1,-9.6 -56.7,-28c-12.6,-15.9 -16.3,-33.7 -14.5,-53.2c1.3,-14.6 7.4,-27.1 17,-38.2c16.3,-19 37.1,-26.3 61.3,-24.6c32.7,2.3 59.7,26.5 65.7,58.7c1.1,6.6 1.6,13.2 1.5,19.9c0,29.6 -0.1,59.4 -0.1,89.2z" class="st8"/>
   <path id="svg_202" fill="#AED581" d="m1742.5,3136.96295c31.7,0 63.3,-0.1 95,0c38.1,0.2 66.8,27.3 68.2,65.3c1,27.1 -10.9,48.3 -34.7,61.4c-23.5,13 -47,11.1 -69.4,-3.7c-16.5,-10.9 -25,-26.6 -28.2,-45.8c-0.6,-3.2 -0.9,-6.5 -1,-9.8c-0.1,-3.4 2,-5.3 4.8,-5.8c3.4,-0.7 6.8,-0.1 8.2,3.8c0.5,1.8 0.7,3.6 0.8,5.4c1.6,29.1 25.6,51.6 54.3,51c29,-0.7 51.8,-24 52.3,-53.6c0.4,-29.4 -21.9,-53.8 -50.9,-54.8c-17,-0.6 -34,-0.2 -51,-0.2c-49.2,0 -98.3,0 -147.4,0c-2.2,0 -4.3,-0.1 -6.5,-0.4c-3.1,-0.3 -5.5,-2.9 -5.4,-6c-0.2,-3.3 2.2,-6.2 5.5,-6.5c1.8,-0.2 3.6,-0.4 5.5,-0.3c33.3,0.1 66.6,0 99.9,0z" class="st8"/>
   <path id="svg_203" fill="#AED581" d="m443.2,2730.96295c-37.7,0.4 -68.5,-34.4 -67.1,-71.9c1.4,-39.7 36.9,-68.4 72,-66.7c38.9,1.9 68.4,33.4 66.8,72s-33.4,68.1 -71.7,66.6zm58.7,-68.9c0.2,-31.1 -24.9,-56.5 -56,-56.7s-56.5,24.9 -56.7,56c-0.2,31 24.7,56.3 55.7,56.7c30.9,0.5 56.4,-24.1 56.9,-55.1c0.1,-0.3 0.1,-0.6 0.1,-0.9l0,0z" class="st8"/>
   <path id="svg_204" fill="#AED581" d="m380.2,2892.56295c-0.5,11.5 1.2,25.4 -2.5,38.9c-4.3,15.8 -13.1,28.5 -27,37.3c-20.6,13.1 -42.6,14.4 -63.9,3.6c-22.9,-11.7 -34.4,-31.5 -34.7,-57.8c-0.4,-32 25.3,-58.5 54.3,-62.7c3.3,-0.5 6.6,-0.1 10,-0.3c3.9,-0.2 5.6,2.4 6,5.4c0.6,3.1 -1.5,6.1 -4.6,6.6c0,0 0,0 -0.1,0c-5.9,1.3 -12,1.4 -17.9,3.3c-20.4,6.5 -34.6,27 -34.7,47.7c-0.3,24.6 17,45.9 41.2,50.7c14.4,2.8 27.9,-0.6 40,-9.7c14.2,-10.6 20.2,-25 20.5,-42s0.1,-34 0.1,-51c0,-1.7 0,-3.3 0.2,-5c0.4,-3.7 1.6,-6.2 6.1,-6.1s6.5,2.4 6.8,6.3c0.3,4.3 0.2,8.6 0.2,13c0,6.6 0,13.1 0,21.8z" class="st8"/>
   <path id="svg_205" fill="#AED581" d="m1847.6,3397.86295c-15.6,0.6 -30.1,-6.4 -41.9,-18c-9.9,-9.8 -16.8,-22 -18.2,-36.5c-0.3,-2.8 -1.4,-5.4 -1.2,-8.3c0.3,-4 1.4,-7.1 6,-7.4c5,-0.3 7.5,1.6 7.7,6.9c0.2,10.9 3.9,21.4 10.4,30.1c16.8,22.4 48.6,26.9 71,10.1c11.9,-9 19.3,-22.8 20.2,-37.7c0,-0.8 0,-1.7 0.1,-2.5c0.5,-4.8 3.3,-7.7 7,-7.5s6.3,3.4 6.2,8.2c-0.8,35.2 -30.8,63.7 -67.3,62.6z" class="st8"/>
   <path id="svg_206" fill="#AED581" d="m68.6,2821.16295c0,-30 0,-60 0,-89.9c0,-6.3 1.2,-7.5 6.4,-7.6c4.8,0 6.4,3 6.6,7c0.2,5.1 0,10.3 0,15.5c0,54.8 0,109.5 0,164.3c0,4 -0.2,7.6 -4.8,9.3c-4,1.4 -7.2,0 -8,-4.2c-0.2,-1.7 -0.3,-3.3 -0.2,-5c0,-29.8 0,-59.6 0,-89.4z" class="st8"/>
   <path id="svg_207" fill="#AED581" d="m577,3252.16295c31.7,0 63.3,-0.1 95,0c38.1,0.2 66.8,27.3 68.2,65.3c1,27.1 -10.9,48.3 -34.7,61.4c-23.5,13 -47,11.1 -69.4,-3.7c-16.5,-10.9 -25,-26.6 -28.2,-45.8c-0.6,-3.2 -0.9,-6.5 -1,-9.8c-0.1,-3.4 2,-5.3 4.9,-5.8c3.4,-0.7 6.8,-0.1 8.2,3.8c0.5,1.8 0.8,3.6 0.8,5.4c1.6,29.1 25.6,51.6 54.3,51c29,-0.7 51.8,-24 52.2,-53.6c0.4,-29.4 -21.9,-53.8 -50.9,-54.8c-17,-0.6 -34,-0.2 -51,-0.2c-49.2,0 -98.3,0 -147.5,0c-2.2,0 -4.3,-0.1 -6.5,-0.4c-3.1,-0.3 -5.5,-2.9 -5.4,-6c-0.2,-3.3 2.2,-6.2 5.5,-6.5c1.8,-0.2 3.6,-0.4 5.5,-0.3c33.3,0 66.6,0 100,0z" class="st8"/>
   <path id="svg_208" fill="#AED581" d="m560.1,3516.96295c-15.6,0.6 -30.1,-6.4 -41.9,-18c-9.9,-9.8 -16.8,-22 -18.2,-36.5c-0.3,-2.8 -1.4,-5.4 -1.2,-8.3c0.3,-4 1.4,-7.1 6,-7.4c5,-0.3 7.5,1.6 7.6,6.9c0.2,10.9 3.8,21.5 10.4,30.2c16.8,22.4 48.7,26.9 71,10.1c11.9,-9 19.3,-22.7 20.2,-37.6c0,-0.8 0,-1.7 0.1,-2.5c0.5,-4.8 3.3,-7.7 7,-7.5s6.3,3.4 6.2,8.2c-0.7,35 -30.7,63.6 -67.2,62.4z" class="st8"/>
   <g id="svg_212">
    <path id="svg_209" fill="#F9785F" d="m357.4,3277.66295c36.5,0 73,0.3 109.4,-0.1c30,-0.3 55.8,19.1 63,47.2c5.2,20.5 2.1,39.6 -11.2,56.9c-9.5,12.3 -21.9,20.3 -36.6,22.8c-21.3,3.7 -41.1,-0.9 -57.4,-16.9c-11.9,-11.7 -17.2,-26.1 -18.7,-42.3c0,-0.3 0,-0.7 0,-1c-0.2,-5.2 2.4,-9.1 6.2,-9.3s7.6,4.1 7.5,8.9c-0.2,14.3 5.8,25.8 15.9,35.5c21.5,20.7 59.5,15.8 75.3,-9.6c14.5,-23.3 9.8,-50.3 -10.9,-68.1c-10.3,-8.9 -23.3,-11.3 -36.7,-11.3c-73.5,0.1 -146.9,0.1 -220.4,0c-1.8,0 -3.7,0 -5.5,-0.1c-3.3,-0.3 -5.6,-1.5 -5.6,-5.4s1.4,-6.4 5.3,-7.1c1.7,-0.2 3.3,-0.3 5,-0.2l115.4,0.1z" class="st6"/>
    <path id="svg_210" fill="#F9785F" d="m223.7,2552.36295c28.7,0 57.3,0 86,0c6,0 8.8,2.5 8.5,7.2c-0.2,3 -1.6,5 -4.8,5.3c-2,0.2 -4,0.3 -6,0.3c-52.7,0 -105.3,0 -158,0c-12.8,0 -25.2,2 -35.8,10c-11.8,9.1 -19.2,20.4 -22.1,35.5c-5.2,26.4 12.8,55 41.8,60.7c10.1,2 20.6,1 30.9,1c2,0 4,-0.1 6,0.1c4.3,0.4 6.2,3.9 6.3,7.2s-2.8,5.4 -6.4,5.4c-9.3,0 -18.7,0 -28,0c-20.1,0.1 -36.6,-8.1 -49.3,-23.1c-12.5,-14.8 -17.3,-32.6 -14.7,-51.8c2.8,-21.5 14.1,-38 32.8,-49.1c10.8,-6.4 22.8,-8.8 35.3,-8.7c25.9,0.1 51.7,0 77.5,0z" class="st6"/>
    <path id="svg_211" fill="#F9785F" d="m438.5,2899.76295c0,-18.5 0,-33.8 0,-49.1c0,-4.1 1,-7.4 5.6,-8.1c4.2,-0.7 7.2,2.3 7.2,7.4c0.1,12.2 -0.1,24.3 0.1,36.5c0.2,18.3 -0.9,36.7 0.6,55c2.3,29.1 15.4,52.8 37.7,71.2c17.5,14.4 37.9,22.5 60.8,23.4c1.8,0.1 3.7,0.2 5.5,0.4c3.9,0.4 6.2,2.4 6.3,6.4c0.1,3.8 -3,6.9 -6.8,7c0,0 -0.1,0 -0.1,0c-9.4,0.4 -18.7,-1.2 -27.7,-3.4c-12.1,-2.9 -23.6,-7.8 -34,-14.6c-30.1,-19.4 -48.6,-46.2 -53.8,-81.8c-2.7,-17.7 -0.8,-35.6 -1.4,-50.3z" class="st6"/>
   </g>
   <g id="svg_215">
    <path id="svg_213" stroke-miterlimit="10" stroke-width="16" stroke="#FCD539" fill="none" d="m628.2,3287.76295l123.8,0c31.6,-0.7 60.1,-3.8 60.1,-3.8c65.4,-10.4 105.8,-60.2 105.8,-60.2c42.8,-38.5 44.7,-100.7 44.7,-100.7l0,-377.2c-8.8,-40.8 -43.9,-75.8 -43.9,-75.8l-320.6,-186.9c-39.1,-19.2 -105,0 -105,0s-261.4,156.2 -309.4,180.7s-59,98.3 -59,98.3l0,237.5c-4.9,48.1 12.3,96.9 12.3,96.9s0.8,14.5 -4,20.1l-113.5,105.4" class="st9"/>
    <path id="svg_214" stroke-miterlimit="10" stroke-width="16" stroke="#FCD539" fill="none" d="m229.6,3218.76295c0,0 65.7,74.5 180.5,66.3s160.6,-19.7 244.2,-162.7c0,0 17.3,-136.4 127.7,-139.7c0,0 13.6,-2.4 13.9,-26.2c0,0 2.4,-101.3 -84.7,-163.2s-195.7,-54.1 -264,13.4l-314.2,310" class="st9"/>
   </g>
   <g id="svg_222">
    <g id="svg_221">
     <path id="svg_216" fill="#636363" d="m867.2,3503.06295l-0.1,13.6l-104.8,-0.9l0.1,-16l82,-50.5l0,-0.8l-20,0.6l-61.6,-0.5l0.1,-13.6l104.8,0.9l-0.1,14.4l-86,52l0,0.8l20,-0.6l65.6,0.6z" class="st10"/>
     <path id="svg_217" fill="#636363" d="m870.6,3384.66295c-0.1,10.4 -4.2,19.2 -11.4,26.3s-16.1,10.3 -27.3,10.2s-20,-3.4 -27.1,-9.8c-7.3,-6.5 -11.3,-15.9 -11,-25.7c0.1,-10.4 3.4,-19.2 10.6,-25.5s16.9,-9.5 28.9,-9.3l1.6,0l-0.5,56c7.2,0.1 12.8,-2.3 16.8,-7.1c4,-4.8 6.5,-9.5 6.5,-15.9c0.1,-8.8 -3.9,-15.2 -12.6,-20.1l5.7,-12c6.4,3.3 10.3,8.1 14.3,13.7s5.5,12 5.5,19.2zm-47.4,21.2l0.3,-40.8c-4.8,0 -8.8,2.3 -12,6.3c-3.3,4.1 -5,9.1 -4.9,14.3c0,4.8 1.5,9.6 4.7,12.8c2.9,4 7.1,6.6 11.9,7.4l0,0z" class="st10"/>
     <path id="svg_218" fill="#636363" d="m849.1,3283.76295c6.4,0.1 11.2,2.5 15.9,8.1c4,5.6 6.3,12 6.2,20.8c-0.1,7.2 -1.7,13.6 -5.8,19.2c-3.8,5.4 -9.1,9.6 -15.3,11.9l-4.6,-12.1c4,-1.6 8,-3.9 10.5,-7.9c2.4,-3.2 3.3,-7.2 3.3,-11.2s-0.7,-8 -2.3,-10.4c-1.1,-2.6 -3.6,-4.2 -6.4,-4.1c-4.8,0 -8,3.1 -10.5,10.3l-3.3,12c-3.3,13.6 -10.6,20.7 -20.2,20.6c-6.4,-0.1 -12,-2.5 -15.9,-8.1s-5.5,-12 -5.4,-20c-0.1,-6 1.7,-11.8 5,-16.8c3.2,-4.8 7.3,-8.7 12.1,-10.3l4.7,12c-3.2,1.6 -5.6,3.2 -7.3,6.3c-1.7,3.2 -2.5,6.8 -2.5,10.4c0,3.3 0.8,6.6 2.3,9.6c1.6,2.4 4,4 6.4,4c4,0 7.2,-3.9 8.9,-11.1l2.5,-11.2c4,-15 11.3,-22.1 21.7,-22z" class="st10"/>
     <path id="svg_219" fill="#636363" d="m870.2,3243.96295c0,5.6 -1.7,10.4 -5.7,14.3s-8,6.3 -14.5,6.3l-40,-0.3l-0.1,12.8l-12,-0.1l0.1,-12.8l-21.5,-0.2l0.1,-13.6l21.6,0.2l0.2,-17.6l12,0.1l-0.2,17.6l36,0.3c4.8,0 8,-0.7 9.6,-2.3c1.6,-1.7 2.5,-4 2.5,-6.4l0,-3.2c0,-0.8 -0.8,-1.6 -0.8,-3.2l12,-3.9c0.8,3.2 0.7,7.2 0.7,12z" class="st10"/>
     <path id="svg_220" fill="#636363" d="m833.6,3224.46295c-11.2,-0.1 -20,-3.4 -27.1,-10.6s-11.1,-16.1 -11,-26.5s4.2,-19.2 11.4,-26.3s16.1,-10.3 27.3,-10.2s20,3.4 27.1,10.6s11.1,16.1 11,26.5c0,10 -4.2,19.5 -11.4,26.3c-7.3,7.1 -16.1,10.2 -27.3,10.2zm0.1,-13.6c8,0.1 13.6,-2.3 18.5,-6.2c9.4,-8.8 9.8,-23.4 1.1,-32.8c-0.3,-0.3 -0.5,-0.5 -0.8,-0.8c-4.8,-4.8 -11.1,-6.5 -18.3,-6.6c-6.7,-0.1 -13.2,2.1 -18.4,6.2c-9.4,8.8 -9.8,23.5 -1.1,32.8c0.3,0.3 0.5,0.5 0.8,0.8c5,4.3 11.5,6.6 18.2,6.6z" class="st10"/>
    </g>
   </g>
  </g>
  <g transform="rotate(-180 958.698 4095.48)" id="svg_261">
   <g id="svg_227">
    <path id="svg_224" fill="#97E6C3" d="m1916.6,4043.56107c0.3,-0.1 0.6,0 0.8,0.1l0,17l-1,0l0.2,-17.1z" class="st0"/>
    <path id="svg_225" fill="#90CAF9" d="m445.7,3613.36107c36.4,0.3 68.7,11.8 96.6,35.5c25.4,21.6 42.1,48.8 47.8,81.4c10.3,58.8 -8.8,107.3 -56,143.9c-19.1,14.8 -41.2,23.7 -65.2,27.4c-7.5,1.2 -15,2.4 -22.6,2.2c-2.7,0.1 -5.2,-1.5 -6.1,-4c-1.1,-2.7 -1,-5.5 0.9,-7.5c2.3,-2.4 5.7,-2.1 8.8,-2.2c13.7,-0.5 27.1,-2.4 40,-7.2c15.6,-5.8 30.3,-13 42.8,-24.4c6.6,-6 12.2,-12.8 18.2,-19.3c15.5,-16.8 22.3,-37.1 27.3,-58.4c0.8,-3.6 1.5,-7.3 0,-10.8c-1.1,-2.4 1.8,-2.8 1.7,-4.8c-0.2,-3 0.5,-6.1 0,-9c-1.5,-8.8 -0.5,-17.9 -3,-26.7c-4.3,-15.5 -9.7,-30.6 -19,-43.8c-10.8,-15.4 -23.8,-28.7 -39.8,-38.7c-25.5,-15.9 -55.7,-22.8 -85.6,-19.6c-13,1.4 -25.4,4.1 -37.4,9.1c-14.6,6.2 -28.2,13.8 -40,24.9c-17,16 -29.6,34.6 -36.8,56.8c-3.7,11.1 -5.7,22.8 -6,34.5c0,1.8 -0.5,3.6 -0.6,5.4c-0.1,4.6 -2.9,6.5 -7.1,6.5c-3.9,0 -6.1,-2.9 -6.1,-7.9c0.1,-11.3 1.6,-22.5 4.4,-33.5c5.5,-21.2 15.1,-40.6 29.2,-57.4c23.8,-28.3 54.3,-45 90.6,-50.8c7.7,-1.2 15.3,-1.8 23,-1.6z" class="st1"/>
    <path id="svg_226" fill="#90CAF9" d="m198.5,4636.16107c-22,-0.5 -49.1,1 -76,-0.8c-11.5,-0.8 -21.6,-5.8 -30.8,-12.3c-14.1,-9.8 -23.6,-24.9 -26.4,-41.8c-2.9,-16.6 -1.2,-33.2 7.9,-48.2c14.1,-23.3 35,-33.8 61.7,-33.8c5.9,0 8.8,2.2 8.8,6.4s-4.1,7.2 -9.6,7c-29.7,-1.3 -55.2,21.8 -56.6,51.3c-1.5,31.6 21.2,58.1 51.7,58.7c38.1,0.8 76.3,0.3 114.5,0.3c11.5,0 23,0.2 34.5,-0.2c16.7,-0.5 29.3,-8.6 40,-21c8.8,-10 13.4,-23 12.6,-36.3c-0.8,-21.2 -12.2,-35.9 -29.6,-46.7c-8.9,-5.5 -18.9,-6.3 -29,-6.5c-5,-0.1 -8.7,-2.9 -8.6,-6.8c0.1,-3.7 3.1,-6 8,-6.3c36.4,-1.7 65.9,24.5 71.2,56.4c5.9,35.3 -15.2,68.8 -49.7,78.2c-8,2.2 -16.1,2.2 -24.1,2.3c-21.9,0.3 -43.8,0.1 -70.5,0.1z" class="st1"/>
   </g>
   <path id="svg_228" fill="#FCD539" d="m619,4098.66107l-0.2,17.1c-3.6,52.6 -48.4,96.6 -101,99.2c-3,0.2 -6,0.2 -9,0.2c-86.5,0 -172.9,0 -259.4,0c-3.1,0 -6.3,0.7 -8.8,-2.2c-3.2,-3.9 -1.7,-9.2 3.3,-10.3c2.3,-0.4 4.6,-0.6 6.9,-0.5c85.8,0 171.6,0 257.4,0c12.8,0 25.2,-1.6 37.1,-6.4c25,-10.2 42.9,-27.8 53.4,-52.7c5.6,-13.1 8,-27.4 7.2,-41.6c-1.8,-31.5 -15.3,-57 -41.2,-75.3c-14.1,-10.1 -30.8,-15.9 -48.1,-16.6c-2.2,0 -4.3,-0.2 -6.5,-0.6c-3.5,-0.8 -5.6,-3 -5.2,-6.7s2.7,-5.4 6.4,-5.5c26.9,-0.4 50.1,8.8 70.3,26.4c20.8,18.1 32.7,41 36.7,68c0.4,2.5 0.5,5 0.7,7.5z" class="st2"/>
   <path id="svg_229" fill="#F06292" d="m1619.3,3866.26107c-1.3,-16 2.2,-29.8 11.5,-41.8c10.4,-13.5 24.3,-20.7 41.3,-21.9s32.1,3.7 44.6,15.4c10.3,9.6 16.6,22.6 17.9,36.6c1.2,11.1 -0.9,22.3 1.9,33.2c4.3,16.7 15,27.9 31.5,32.5c16.2,4.5 30.8,0.6 43.4,-11c10.2,-9.4 14.4,-21.3 14.7,-34.8c0.1,-5.8 0,-11.7 0,-17.5c0,-4.1 1.8,-7 6,-6.8c3.8,0.2 7,2 6.8,6.8c-0.4,13.9 1.4,27.8 -4.2,41.3c-5.3,13 -15,23.8 -27.4,30.3c-13.2,7.3 -27.5,8.4 -41.7,4.6c-17.5,-4.7 -30.4,-15.7 -38.6,-32.1c-5.9,-11.8 -4.7,-24.3 -4.8,-36.8c0,-8 -1.1,-15.8 -4.7,-22.9c-8.9,-17.8 -26.7,-27.7 -45.4,-25.7c-21.4,2.3 -35.3,16.6 -39.4,35.5c-2,9.3 -1,18.9 -0.8,28.4c0.1,4.1 -1.6,6.4 -5.3,7.6s-7.1,-0.9 -7.3,-4.8c-0.2,-5.6 0,-11.3 0,-16.1z" class="st3"/>
   <path id="svg_230" fill="#F06292" d="m539.7,3981.46107c-1.3,-16 2.2,-29.8 11.5,-41.8c10.4,-13.5 24.3,-20.7 41.3,-21.9s32.1,3.7 44.6,15.4c10.3,9.6 16.6,22.6 17.9,36.6c1.2,11.1 -0.9,22.3 1.9,33.2c4.3,16.7 14.9,27.9 31.5,32.5c16.2,4.5 30.8,0.6 43.4,-11c10.2,-9.4 14.4,-21.3 14.7,-34.8c0.1,-5.8 0,-11.7 0,-17.5c0,-4.1 1.8,-7 6,-6.8c3.8,0.2 7,2 6.8,6.8c-0.5,13.9 1.4,27.8 -4.2,41.3c-5.3,13 -15,23.8 -27.4,30.3c-13.2,7.3 -27.5,8.4 -41.7,4.6c-17.5,-4.7 -30.4,-15.7 -38.6,-32.1c-5.9,-11.8 -4.7,-24.4 -4.8,-36.8c0,-8 -1.1,-15.8 -4.7,-22.9c-8.9,-17.8 -26.7,-27.7 -45.4,-25.7c-21.4,2.3 -35.3,16.6 -39.4,35.5c-2,9.3 -1,18.9 -0.8,28.4c0.1,4.1 -1.6,6.4 -5.3,7.6s-7.1,-0.9 -7.3,-4.8c-0.2,-5.7 0,-11.4 0,-16.1z" class="st3"/>
   <path id="svg_231" fill="#FA6542" d="m1221.5,3554.66107c3.6,16.3 12.1,29.8 23.9,41.3c17.1,16.6 37.8,25.1 61.7,25.1c35,0 69.9,0.3 104.9,-0.4s70.3,-30.4 78.5,-64.4c0.1,-0.5 0.1,-1 0.1,-1.5l14,0c-3.8,12.8 -8.7,25.2 -16.6,36.2c-15.7,21.8 -36.8,35.3 -62.8,41.5c-7,1.7 -14.1,1.7 -21.2,1.7c-37,-0.3 -74,1.2 -110.9,-0.8c-14,-0.7 -26.7,-6.4 -38.7,-13.4c-19.1,-11.1 -32.2,-27.8 -41.2,-47.5c-2.5,-5.5 -5.1,-11.3 -5.5,-17.6l13.8,-0.2z" class="st4"/>
   <path id="svg_232" fill="#F43A5F" d="m1917.4,3587.76107c-17.1,1.2 -32,-4.7 -45.6,-14.3c-6.4,-4.5 -13.1,-9 -16.4,-16.7l17,0c12.5,12.2 27.4,18.6 45,18l0,13z" class="st5"/>
   <path id="svg_233" fill="#F9785F" d="m128,4049.36107c0,36.5 -0.3,73 0.1,109.4c0.3,30 -19.1,55.8 -47.2,63c-20.5,5.2 -39.6,2.1 -56.9,-11.2c-12.3,-9.6 -20.3,-21.9 -22.8,-36.6c-3.7,-21.3 0.9,-41.1 16.9,-57.3c11.7,-11.9 26.1,-17.2 42.3,-18.7c0.3,0 0.7,0 1,0c5.2,-0.2 9.1,2.4 9.2,6.2s-4.1,7.5 -8.9,7.5c-14.3,-0.2 -25.8,5.8 -35.5,15.9c-20.7,21.5 -15.8,59.5 9.6,75.3c23.3,14.5 50.3,9.8 68.1,-10.9c8.9,-10.3 11.3,-23.3 11.3,-36.7c-0.1,-73.5 -0.1,-146.9 0,-220.4c0,-1.8 0,-3.7 0.1,-5.5c0.3,-3.3 1.5,-5.6 5.4,-5.6s6.4,1.4 7.1,5.3c0.2,1.7 0.3,3.3 0.2,5c0,38.4 0,76.8 0,115.3z" class="st6"/>
   <path id="svg_234" fill="#F77B63" d="m1914.8,3800.46107c0,28.7 0,57.3 0,86c0,6 -2.4,8.8 -7.2,8.5c-3,-0.2 -5,-1.6 -5.3,-4.8c-0.2,-2 -0.3,-4 -0.3,-6c0,-52.7 0,-105.3 0,-158c0,-12.8 -2,-25.2 -10,-35.8c-9,-11.8 -20.3,-19.2 -35.4,-22.1c-26.4,-5.2 -55,12.8 -60.7,41.8c-2,10.1 -1,20.6 -1,30.9c0,2 0,4 -0.1,6c-0.4,4.3 -3.9,6.2 -7.2,6.3s-5.4,-2.8 -5.4,-6.4c0,-9.3 0,-18.7 0,-28c-0.1,-20.1 8.1,-36.6 23.1,-49.3c14.8,-12.6 32.6,-17.3 51.8,-14.8c21.5,2.8 38,14.1 49.1,32.8c6.4,10.8 8.8,22.8 8.7,35.3c-0.2,26 -0.1,51.8 -0.1,77.6z" class="st7"/>
   <path id="svg_235" fill="#F77B63" d="m1794.4,4015.26107c18.4,0 33.8,0 49.1,0c4.1,0 7.4,1 8.1,5.6c0.7,4.2 -2.3,7.2 -7.4,7.2c-12.2,0.1 -24.3,-0.1 -36.5,0.1c-18.3,0.2 -36.7,-0.9 -55,0.6c-29.1,2.3 -52.8,15.4 -71.2,37.7c-14.4,17.5 -22.5,37.9 -23.4,60.8c-0.1,1.8 -0.2,3.7 -0.4,5.5c-0.4,3.9 -2.4,6.2 -6.4,6.3c-3.8,0.1 -6.9,-3 -7,-6.8c0,0 0,-0.1 0,-0.1c-0.4,-9.4 1.2,-18.7 3.4,-27.7c2.9,-12.1 7.8,-23.6 14.6,-34c19.3,-30.1 46.2,-48.6 81.7,-53.8c17.8,-2.7 35.7,-0.8 50.4,-1.4z" class="st7"/>
   <path id="svg_236" fill="#F9785F" d="m853.2,3915.66107c0,28.7 0,57.3 0,86c0,6 -2.5,8.8 -7.2,8.5c-3,-0.2 -5,-1.6 -5.3,-4.8c-0.2,-2 -0.3,-4 -0.3,-6c0,-52.7 0,-105.3 0,-158c0,-12.8 -2,-25.2 -10,-35.8c-9,-11.8 -20.3,-19.1 -35.4,-22.1c-26.4,-5.1 -55,12.8 -60.7,41.8c-2,10.1 -1,20.6 -1,30.9c0,2 0,4 -0.1,6c-0.4,4.3 -3.9,6.2 -7.2,6.3s-5.4,-2.8 -5.4,-6.4c0,-9.3 0,-18.7 0,-28c-0.1,-20.1 8.1,-36.6 23.1,-49.3c14.8,-12.6 32.6,-17.3 51.8,-14.8c21.5,2.9 38,14.1 49.1,32.8c6.4,10.8 8.8,22.8 8.7,35.3c-0.1,25.9 -0.1,51.7 -0.1,77.6z" class="st6"/>
   <path id="svg_237" fill="#F9785F" d="m505.8,4130.46107c18.5,0 33.8,0 49.1,0c4.1,0 7.4,1 8.1,5.6c0.7,4.2 -2.3,7.2 -7.4,7.2c-12.2,0.1 -24.3,-0.1 -36.5,0.1c-18.3,0.2 -36.7,-0.9 -55,0.6c-29.1,2.3 -52.8,15.4 -71.2,37.7c-14.4,17.5 -22.5,37.9 -23.4,60.8c-0.1,1.8 -0.2,3.7 -0.4,5.5c-0.4,3.9 -2.4,6.2 -6.4,6.3c-3.8,0.1 -6.9,-3 -7,-6.8c0,0 0,-0.1 0,-0.1c-0.4,-9.4 1.2,-18.7 3.4,-27.7c2.9,-12.1 7.8,-23.6 14.6,-34c19.3,-30.1 46.2,-48.6 81.7,-53.8c17.9,-2.8 35.8,-0.8 50.4,-1.4z" class="st6"/>
   <path id="svg_238" fill="#AED581" d="m1916.6,4043.56107l-0.2,17.1c-3.6,52.6 -48.4,96.6 -101,99.2c-3,0.2 -6,0.2 -9,0.2c-86.5,0 -172.9,0 -259.4,0c-3,0 -6.3,0.7 -8.8,-2.2c-3.3,-3.9 -1.7,-9.2 3.3,-10.3c2.3,-0.4 4.6,-0.6 6.9,-0.5c85.8,0 171.6,0 257.4,0c12.8,0 25.2,-1.6 37.1,-6.4c25,-10.2 42.9,-27.8 53.4,-52.7c5.6,-13.1 8,-27.4 7.2,-41.6c-1.8,-31.5 -15.3,-57 -41.2,-75.3c-14.1,-10.1 -30.8,-15.9 -48.1,-16.6c-2.2,0 -4.3,-0.2 -6.4,-0.6c-3.4,-0.8 -5.6,-3 -5.2,-6.7s2.7,-5.4 6.4,-5.5c26.9,-0.4 50.1,8.8 70.3,26.4c20.8,18.1 32.7,40.9 36.7,68c0.3,2.5 0.4,5 0.6,7.5z" class="st8"/>
   <path id="svg_239" fill="#AED581" d="m221.2,4440.56107l0,101c0,3.7 0.1,7.3 -3.8,9.6s-8,0.7 -8.9,-3.8c-0.4,-2.5 -0.6,-4.9 -0.5,-7.4c0,-64 0,-128 0,-191.9c0,-12.4 -2.4,-24.2 -9.2,-34.6c-9.9,-15 -23.6,-24 -41.7,-27c-19.9,-3.3 -36.9,2.2 -51,15.7c-12.2,11.6 -18,26.4 -17.9,43.7c0.3,28.7 22.9,52.9 49.4,57c3.1,0.5 6.2,0.7 9.4,0.8c4.3,0.2 8.1,3.4 7.6,6.9c-0.6,4.3 -3.3,6.2 -7.6,6.2c-23.3,-0.5 -42.1,-9.6 -56.7,-28c-12.6,-15.9 -16.3,-33.7 -14.5,-53.2c1.3,-14.6 7.4,-27.1 17,-38.2c16.3,-19 37.1,-26.3 61.3,-24.6c32.7,2.3 59.7,26.5 65.7,58.7c1.1,6.6 1.6,13.2 1.5,19.9c0,29.6 -0.1,59.4 -0.1,89.2z" class="st8"/>
   <path id="svg_240" fill="#AED581" d="m1742.5,4228.96107c31.7,0 63.3,-0.1 95,0c38.1,0.2 66.8,27.3 68.2,65.3c1,27.1 -10.9,48.3 -34.7,61.4c-23.5,13 -47,11.1 -69.4,-3.7c-16.5,-10.9 -25,-26.6 -28.2,-45.8c-0.6,-3.2 -0.9,-6.5 -1,-9.8c-0.1,-3.4 2,-5.3 4.8,-5.8c3.4,-0.7 6.8,-0.1 8.2,3.8c0.5,1.8 0.7,3.6 0.8,5.4c1.6,29.1 25.6,51.6 54.3,51c29,-0.7 51.8,-24 52.3,-53.6c0.4,-29.4 -21.9,-53.8 -50.9,-54.8c-17,-0.6 -34,-0.2 -51,-0.2c-49.2,0 -98.3,0 -147.4,0c-2.2,0 -4.3,-0.1 -6.5,-0.4c-3.1,-0.3 -5.5,-2.9 -5.4,-6c-0.2,-3.3 2.2,-6.2 5.5,-6.5c1.8,-0.2 3.6,-0.4 5.5,-0.3c33.3,0.1 66.6,0 99.9,0z" class="st8"/>
   <path id="svg_241" fill="#AED581" d="m443.2,3822.96107c-37.7,0.4 -68.5,-34.4 -67.1,-71.9c1.4,-39.7 36.9,-68.4 72,-66.7c38.9,1.9 68.4,33.4 66.8,72s-33.4,68.1 -71.7,66.6zm58.7,-68.9c0.2,-31.1 -24.9,-56.5 -56,-56.7s-56.5,24.9 -56.7,56c-0.2,31 24.7,56.3 55.7,56.7c30.9,0.5 56.4,-24.1 56.9,-55.1c0.1,-0.3 0.1,-0.6 0.1,-0.9l0,0z" class="st8"/>
   <path id="svg_242" fill="#AED581" d="m380.2,3984.56107c-0.5,11.5 1.2,25.4 -2.5,38.9c-4.3,15.8 -13.1,28.5 -27,37.3c-20.6,13.1 -42.6,14.4 -63.9,3.6c-22.9,-11.7 -34.4,-31.5 -34.7,-57.8c-0.4,-32 25.3,-58.5 54.3,-62.7c3.3,-0.5 6.6,-0.1 10,-0.3c3.9,-0.2 5.6,2.4 6,5.4c0.6,3.1 -1.5,6.1 -4.6,6.6c0,0 0,0 -0.1,0c-5.9,1.3 -12,1.4 -17.9,3.3c-20.4,6.5 -34.6,27 -34.7,47.7c-0.3,24.6 17,45.9 41.2,50.7c14.4,2.8 27.9,-0.6 40,-9.7c14.2,-10.6 20.2,-25 20.5,-42s0.1,-34 0.1,-51c0,-1.7 0,-3.3 0.2,-5c0.4,-3.7 1.6,-6.2 6.1,-6.1s6.5,2.4 6.8,6.3c0.3,4.3 0.2,8.6 0.2,13c0,6.6 0,13.1 0,21.8z" class="st8"/>
   <path id="svg_243" fill="#AED581" d="m1847.6,4489.86107c-15.6,0.6 -30.1,-6.4 -41.9,-18c-9.9,-9.8 -16.8,-22 -18.2,-36.5c-0.3,-2.8 -1.4,-5.4 -1.2,-8.3c0.3,-4 1.4,-7.1 6,-7.4c5,-0.3 7.5,1.6 7.7,6.9c0.2,10.9 3.9,21.4 10.4,30.1c16.8,22.4 48.6,26.9 71,10.1c11.9,-9 19.3,-22.8 20.2,-37.7c0,-0.8 0,-1.7 0.1,-2.5c0.5,-4.8 3.3,-7.7 7,-7.5s6.3,3.4 6.2,8.2c-0.8,35.2 -30.8,63.7 -67.3,62.6z" class="st8"/>
   <path id="svg_244" fill="#AED581" d="m68.6,3913.16107c0,-30 0,-60 0,-89.9c0,-6.3 1.2,-7.5 6.4,-7.6c4.8,0 6.4,3 6.6,7c0.2,5.1 0,10.3 0,15.5c0,54.8 0,109.5 0,164.3c0,4 -0.2,7.6 -4.8,9.3c-4,1.4 -7.2,0 -8,-4.2c-0.2,-1.7 -0.3,-3.3 -0.2,-5c0,-29.8 0,-59.6 0,-89.4z" class="st8"/>
   <path id="svg_245" fill="#AED581" d="m577,4344.16107c31.7,0 63.3,-0.1 95,0c38.1,0.2 66.8,27.3 68.2,65.3c1,27.1 -10.9,48.3 -34.7,61.4c-23.5,13 -47,11.1 -69.4,-3.7c-16.5,-10.9 -25,-26.6 -28.2,-45.8c-0.6,-3.2 -0.9,-6.5 -1,-9.8c-0.1,-3.4 2,-5.3 4.9,-5.8c3.4,-0.7 6.8,-0.1 8.2,3.8c0.5,1.8 0.8,3.6 0.8,5.4c1.6,29.1 25.6,51.6 54.3,51c29,-0.7 51.8,-24 52.2,-53.6c0.4,-29.4 -21.9,-53.8 -50.9,-54.8c-17,-0.6 -34,-0.2 -51,-0.2c-49.2,0 -98.3,0 -147.5,0c-2.2,0 -4.3,-0.1 -6.5,-0.4c-3.1,-0.3 -5.5,-2.9 -5.4,-6c-0.2,-3.3 2.2,-6.2 5.5,-6.5c1.8,-0.2 3.6,-0.4 5.5,-0.3c33.3,0 66.6,0 100,0z" class="st8"/>
   <path id="svg_246" fill="#AED581" d="m560.1,4608.96107c-15.6,0.6 -30.1,-6.4 -41.9,-18c-9.9,-9.8 -16.8,-22 -18.2,-36.5c-0.3,-2.8 -1.4,-5.4 -1.2,-8.3c0.3,-4 1.4,-7.1 6,-7.4c5,-0.3 7.5,1.6 7.6,6.9c0.2,10.9 3.8,21.5 10.4,30.2c16.8,22.4 48.7,26.9 71,10.1c11.9,-9 19.3,-22.7 20.2,-37.6c0,-0.8 0,-1.7 0.1,-2.5c0.5,-4.8 3.3,-7.7 7,-7.5s6.3,3.4 6.2,8.2c-0.7,35 -30.7,63.6 -67.2,62.4z" class="st8"/>
   <g id="svg_250">
    <path id="svg_247" fill="#F9785F" d="m357.4,4369.66107c36.5,0 73,0.3 109.4,-0.1c30,-0.3 55.8,19.1 63,47.2c5.2,20.5 2.1,39.6 -11.2,56.9c-9.5,12.3 -21.9,20.3 -36.6,22.8c-21.3,3.7 -41.1,-0.9 -57.4,-16.9c-11.9,-11.7 -17.2,-26.1 -18.7,-42.3c0,-0.3 0,-0.7 0,-1c-0.2,-5.2 2.4,-9.1 6.2,-9.3s7.6,4.1 7.5,8.9c-0.2,14.3 5.8,25.8 15.9,35.5c21.5,20.7 59.5,15.8 75.3,-9.6c14.5,-23.3 9.8,-50.3 -10.9,-68.1c-10.3,-8.9 -23.3,-11.3 -36.7,-11.3c-73.5,0.1 -146.9,0.1 -220.4,0c-1.8,0 -3.7,0 -5.5,-0.1c-3.3,-0.3 -5.6,-1.5 -5.6,-5.4s1.4,-6.4 5.3,-7.1c1.7,-0.2 3.3,-0.3 5,-0.2l115.4,0.1z" class="st6"/>
    <path id="svg_248" fill="#F9785F" d="m223.7,3644.36107c28.7,0 57.3,0 86,0c6,0 8.8,2.5 8.5,7.2c-0.2,3 -1.6,5 -4.8,5.3c-2,0.2 -4,0.3 -6,0.3c-52.7,0 -105.3,0 -158,0c-12.8,0 -25.2,2 -35.8,10c-11.8,9.1 -19.2,20.4 -22.1,35.5c-5.2,26.4 12.8,55 41.8,60.7c10.1,2 20.6,1 30.9,1c2,0 4,-0.1 6,0.1c4.3,0.4 6.2,3.9 6.3,7.2s-2.8,5.4 -6.4,5.4c-9.3,0 -18.7,0 -28,0c-20.1,0.1 -36.6,-8.1 -49.3,-23.1c-12.5,-14.8 -17.3,-32.6 -14.7,-51.8c2.8,-21.5 14.1,-38 32.8,-49.1c10.8,-6.4 22.8,-8.8 35.3,-8.7c25.9,0.1 51.7,0 77.5,0z" class="st6"/>
    <path id="svg_249" fill="#F9785F" d="m438.5,3991.76107c0,-18.5 0,-33.8 0,-49.1c0,-4.1 1,-7.4 5.6,-8.1c4.2,-0.7 7.2,2.3 7.2,7.4c0.1,12.2 -0.1,24.3 0.1,36.5c0.2,18.3 -0.9,36.7 0.6,55c2.3,29.1 15.4,52.8 37.7,71.2c17.5,14.4 37.9,22.5 60.8,23.4c1.8,0.1 3.7,0.2 5.5,0.4c3.9,0.4 6.2,2.4 6.3,6.4c0.1,3.8 -3,6.9 -6.8,7c0,0 -0.1,0 -0.1,0c-9.4,0.4 -18.7,-1.2 -27.7,-3.4c-12.1,-2.9 -23.6,-7.8 -34,-14.6c-30.1,-19.4 -48.6,-46.2 -53.8,-81.8c-2.7,-17.7 -0.8,-35.6 -1.4,-50.3z" class="st6"/>
   </g>
   <g id="svg_253">
    <path id="svg_251" stroke-miterlimit="10" stroke-width="16" stroke="#FCD539" fill="none" d="m628.2,4379.76107l123.8,0c31.6,-0.7 60.1,-3.8 60.1,-3.8c65.4,-10.4 105.8,-60.2 105.8,-60.2c42.8,-38.5 44.7,-100.7 44.7,-100.7l0,-377.2c-8.8,-40.8 -43.9,-75.8 -43.9,-75.8l-320.6,-186.9c-39.1,-19.2 -105,0 -105,0s-261.4,156.2 -309.4,180.7s-59,98.3 -59,98.3l0,237.5c-4.9,48.1 12.3,96.9 12.3,96.9s0.8,14.5 -4,20.1l-113.5,105.4" class="st9"/>
    <path id="svg_252" stroke-miterlimit="10" stroke-width="16" stroke="#FCD539" fill="none" d="m229.6,4310.76107c0,0 65.7,74.5 180.5,66.3s160.6,-19.7 244.2,-162.7c0,0 17.3,-136.4 127.7,-139.7c0,0 13.6,-2.4 13.9,-26.2c0,0 2.4,-101.3 -84.7,-163.2s-195.7,-54.1 -264,13.4l-314.2,310" class="st9"/>
   </g>
   <g id="svg_260">
    <g id="svg_259">
     <path id="svg_254" fill="#636363" d="m867.2,4595.06107l-0.1,13.6l-104.8,-0.9l0.1,-16l82,-50.5l0,-0.8l-20,0.6l-61.6,-0.5l0.1,-13.6l104.8,0.9l-0.1,14.4l-86,52l0,0.8l20,-0.6l65.6,0.6z" class="st10"/>
     <path id="svg_255" fill="#636363" d="m870.6,4476.66107c-0.1,10.4 -4.2,19.2 -11.4,26.3s-16.1,10.3 -27.3,10.2s-20,-3.4 -27.1,-9.8c-7.3,-6.5 -11.3,-15.9 -11,-25.7c0.1,-10.4 3.4,-19.2 10.6,-25.5s16.9,-9.5 28.9,-9.3l1.6,0l-0.5,56c7.2,0.1 12.8,-2.3 16.8,-7.1c4,-4.8 6.5,-9.5 6.5,-15.9c0.1,-8.8 -3.9,-15.2 -12.6,-20.1l5.7,-12c6.4,3.3 10.3,8.1 14.3,13.7s5.5,12 5.5,19.2zm-47.4,21.2l0.3,-40.8c-4.8,0 -8.8,2.3 -12,6.3c-3.3,4.1 -5,9.1 -4.9,14.3c0,4.8 1.5,9.6 4.7,12.8c2.9,4 7.1,6.6 11.9,7.4l0,0z" class="st10"/>
     <path id="svg_256" fill="#636363" d="m849.1,4375.76107c6.4,0.1 11.2,2.5 15.9,8.1c4,5.6 6.3,12 6.2,20.8c-0.1,7.2 -1.7,13.6 -5.8,19.2c-3.8,5.4 -9.1,9.6 -15.3,11.9l-4.6,-12.1c4,-1.6 8,-3.9 10.5,-7.9c2.4,-3.2 3.3,-7.2 3.3,-11.2s-0.7,-8 -2.3,-10.4c-1.1,-2.6 -3.6,-4.2 -6.4,-4.1c-4.8,0 -8,3.1 -10.5,10.3l-3.3,12c-3.3,13.6 -10.6,20.7 -20.2,20.6c-6.4,-0.1 -12,-2.5 -15.9,-8.1s-5.5,-12 -5.4,-20c-0.1,-6 1.7,-11.8 5,-16.8c3.2,-4.8 7.3,-8.7 12.1,-10.3l4.7,12c-3.2,1.6 -5.6,3.2 -7.3,6.3c-1.7,3.2 -2.5,6.8 -2.5,10.4c0,3.3 0.8,6.6 2.3,9.6c1.6,2.4 4,4 6.4,4c4,0 7.2,-3.9 8.9,-11.1l2.5,-11.2c4,-15 11.3,-22.1 21.7,-22z" class="st10"/>
     <path id="svg_257" fill="#636363" d="m870.2,4335.96107c0,5.6 -1.7,10.4 -5.7,14.3s-8,6.3 -14.5,6.3l-40,-0.3l-0.1,12.8l-12,-0.1l0.1,-12.8l-21.5,-0.2l0.1,-13.6l21.6,0.2l0.2,-17.6l12,0.1l-0.2,17.6l36,0.3c4.8,0 8,-0.7 9.6,-2.3c1.6,-1.7 2.5,-4 2.5,-6.4l0,-3.2c0,-0.8 -0.8,-1.6 -0.8,-3.2l12,-3.9c0.8,3.2 0.7,7.2 0.7,12z" class="st10"/>
     <path id="svg_258" fill="#636363" d="m833.6,4316.46107c-11.2,-0.1 -20,-3.4 -27.1,-10.6s-11.1,-16.1 -11,-26.5s4.2,-19.2 11.4,-26.3s16.1,-10.3 27.3,-10.2s20,3.4 27.1,10.6s11.1,16.1 11,26.5c0,10 -4.2,19.5 -11.4,26.3c-7.3,7.1 -16.1,10.2 -27.3,10.2zm0.1,-13.6c8,0.1 13.6,-2.3 18.5,-6.2c9.4,-8.8 9.8,-23.4 1.1,-32.8c-0.3,-0.3 -0.5,-0.5 -0.8,-0.8c-4.8,-4.8 -11.1,-6.5 -18.3,-6.6c-6.7,-0.1 -13.2,2.1 -18.4,6.2c-9.4,8.8 -9.8,23.5 -1.1,32.8c0.3,0.3 0.5,0.5 0.8,0.8c5,4.3 11.5,6.6 18.2,6.6z" class="st10"/>
    </g>
   </g>
  </g>
 </g>
</svg>