<?xml version="1.0" encoding="utf-8"?>
<!-- Generator: Adobe Illustrator 24.0.1, SVG Export Plug-In . SVG Version: 6.00 Build 0)  -->
<svg version="1.1" id="图层_1" xmlns="http://www.w3.org/2000/svg" xmlns:xlink="http://www.w3.org/1999/xlink" x="0px" y="0px"
	 viewBox="0 0 92 32" style="enable-background:new 0 0 92 32;" xml:space="preserve">
<style type="text/css">
	.st0{fill:#FCD539;}
	.st1{fill:#444444;}
	.st2{enable-background:new    ;}
</style>
<path class="st0" d="M35.1,18.5c0-1.3,0-2.5,0-3.8c0-0.9,0-1.7,0.1-2.6c0-0.7-0.5-1.5-1.1-1.9c-0.4-0.2-0.8-0.5-1.3-0.8
	c-0.6-0.4-1.3-0.7-1.9-1.1C30.4,8,30,7.7,29.5,7.4c-0.3-0.2-0.7-0.4-1-0.6c-0.6-0.3-1.1-0.6-1.6-0.9c-0.4-0.2-0.7-0.4-1.1-0.6
	c-0.5-0.3-1-0.6-1.4-0.9c-0.8-0.6-2.2-0.5-3,0.1C21,4.8,20.5,5,20,5.3c-0.6,0.4-1.2,0.7-1.8,1.1c-0.4,0.2-0.9,0.4-1.3,0.7
	c-0.7,0.4-1.3,0.8-1.9,1.2c-0.5,0.3-1,0.5-1.5,0.8s-1,0.6-1.5,1c-0.2,0.1-0.5,0.3-0.6,0.4c-0.5,0.4-0.7,1-0.7,1.6c0,2.6,0,5.3,0,7.9
	c0,0.3-0.1,0.6-0.1,0.9c0,0.2,0.1,0.4,0.2,0.5c0.1,0.1,0.4,0,0.5-0.1c0.6-0.6,1.2-1.2,1.7-1.8c0.8-0.8,1.6-1.7,2.5-2.5
	c1-1,2-1.9,2.9-2.9c0.4-0.4,0.8-0.9,1.2-1.2c0.5-0.4,1.1-0.6,1.7-1c0.1-0.1,0.2-0.1,0.3-0.1c1.4-0.8,3-0.6,4.5-0.3
	c1,0.2,2,0.7,2.9,1.5s1.6,1.6,2.1,2.7c0.5,1,0.8,2.1,0.7,3.2c0,0.5-0.2,0.7-0.7,0.8c-1.4,0.1-2.5,0.8-3.2,1.9
	c-0.4,0.6-0.6,1.3-0.8,1.9c-0.2,0.9-0.6,1.6-1,2.3c0,0.1-0.1,0.1-0.1,0.2c-0.3,0.8-0.9,1.4-1.5,2s-1.4,1.2-2.2,1.6
	c-0.6,0.3-1.3,0.6-1.9,0.8c-0.3,0.1-0.7,0.2-1.1,0.2c-1,0-2,0-3,0c-0.6,0-1.3-0.2-1.9-0.5c-0.6-0.2-1.1-0.4-1.6-0.8
	s-1.1-0.6-1.5-1.1c-0.1-0.2-0.1-0.4,0.1-0.6c0.4-0.4,0.9-0.8,1.3-1.3c0.2-0.2,0.4-0.2,0.6-0.1c0.6,0.4,1.2,0.7,1.8,1
	c0.6,0.2,1.2,0.3,1.8,0.5c0.1,0.3,0.5,0.3,1,0.3H18c0.7-0.4,1.6-0.1,2.3-0.7c0.3-0.2,0.7-0.3,1-0.6c0.6-0.5,1.2-1,1.7-1.6
	c0.4-0.4,0.5-1,0.8-1.6c0.1-0.2,0.2-0.4,0.3-0.6c0.1-0.3,0.2-0.5,0.2-0.8c0.1-0.4,0.2-0.8,0.4-1.3c0.3-0.4,0.5-0.9,0.8-1.3
	c0.5-0.6,1-1.1,1.7-1.6c0.3-0.2,0.6-0.4,0.8-0.6c0.2-0.2,0.2-0.4,0.1-0.6c-0.5-0.8-1-1.6-2-2c-0.4-0.2-0.8-0.4-1.2-0.5
	c-0.9-0.2-1.8-0.1-2.7,0.2c-0.8,0.3-1.4,0.8-2,1.4c-0.5,0.6-1.1,1.1-1.6,1.6s-0.9,1-1.4,1.4c-0.5,0.5-1.1,1.1-1.6,1.6
	s-1,1.1-1.6,1.6c-0.5,0.5-1,0.9-1.5,1.4s-0.9,1-1.4,1.5s-1,1-1.5,1.5s-1,1-1.5,1.5c-0.2,0.2-0.4,0.4-0.6,0.6
	c-0.6,0.6-1.2,1.2-1.8,1.7c-0.3,0.3-0.4,0.2-0.7-0.1c-0.3-0.3-0.6-0.6-1-0.9S3.5,28.4,3.9,28c0.8-0.4,1.4-1,2.1-1.6
	c0.6-0.6,1.2-1.2,1.8-1.9C8,24.2,8,23.9,7.9,23.6c-0.4-0.9-0.4-1.8-0.4-2.8c0-2.9,0-5.9,0-8.8c0-1.3,0.5-2.4,1.4-3.3
	c0.6-0.6,1.4-1,2.1-1.5c0.4-0.3,0.9-0.5,1.3-0.8c0.6-0.3,1.2-0.7,1.8-1c0.8-0.5,1.7-1,2.5-1.5c0.5-0.3,1.1-0.6,1.6-0.9
	s1.1-0.6,1.6-0.9c1-0.7,2.1-0.9,3.3-0.9c1.1,0,1.9,0.5,2.7,1c0.4,0.3,0.8,0.5,1.2,0.7c0.7,0.4,1.3,0.8,2,1.2c0.5,0.3,1,0.5,1.5,0.8
	c0.6,0.3,1.1,0.7,1.7,1c0.3,0.2,0.6,0.4,1,0.6c0.5,0.3,1,0.5,1.5,0.8c0.8,0.5,1.6,0.9,2.1,1.6c0.8,1.1,1.2,2.3,1.2,3.6
	c0,2.4,0,4.8,0,7.2c0,1.2,0.1,2.5,0,3.7c-0.1,1-0.2,2-0.5,3c-0.2,0.7-0.7,1.4-1.2,1.9c-0.7,0.8-1.6,1.5-2.6,1.9s-2.1,0.5-3.1,0.5
	c-1.4,0-2.8,0-4.3,0c-0.6,0-0.7-0.2-0.7-0.8c0-0.4,0-0.9,0-1.3c0-0.7,0.2-0.8,0.9-0.8c0.8,0,1.7,0,2.5,0s1.5,0,2.3,0
	c1,0,1.8-0.4,2.6-1.1c0.4-0.4,0.8-0.8,1-1.4c0.2-0.5,0.3-1.1,0.3-1.6C35.1,22.1,35.1,20.3,35.1,18.5L35.1,18.5z"/>
<path class="st1" d="M24.2,15.5c0.7,0,1.1,0.6,1.1,1.1c0,0.6-0.5,1-1.2,1.1c-0.5,0-1.1-0.5-1.1-1.1C23.1,16,23.6,15.5,24.2,15.5z"/>
<g class="st2">
	<path class="st1" d="M44.2,30.8h-1.7V17.7h2l6.4,10.2H51l-0.1-2.5v-7.7h1.7v13.1h-1.8l-6.6-10.7h-0.1l0.1,2.5V30.8z"/>
	<path class="st1" d="M59,31.1c-1.3,0-2.4-0.5-3.3-1.4c-0.9-0.9-1.3-2-1.3-3.4c0-1.4,0.4-2.5,1.2-3.4c0.8-0.9,1.9-1.4,3.2-1.4
		c1.3,0,2.4,0.4,3.2,1.3c0.8,0.9,1.2,2.1,1.2,3.6l0,0.2h-7c0,0.9,0.3,1.6,0.9,2.1c0.6,0.5,1.2,0.8,2,0.8c1.1,0,1.9-0.5,2.5-1.6
		l1.5,0.7c-0.4,0.8-1,1.3-1.7,1.8S59.9,31.1,59,31.1z M56.3,25.2h5.1c0-0.6-0.3-1.1-0.8-1.5c-0.5-0.4-1.1-0.6-1.8-0.6
		c-0.6,0-1.2,0.2-1.6,0.6C56.7,24.1,56.4,24.6,56.3,25.2z"/>
	<path class="st1" d="M71.6,28.3c0,0.8-0.3,1.4-1,2c-0.7,0.5-1.5,0.8-2.6,0.8c-0.9,0-1.7-0.2-2.4-0.7c-0.7-0.5-1.2-1.1-1.5-1.9
		l1.5-0.6c0.2,0.5,0.5,1,1,1.3c0.4,0.3,0.9,0.4,1.4,0.4c0.5,0,1-0.1,1.3-0.3c0.4-0.2,0.5-0.5,0.5-0.8c0-0.6-0.4-1-1.3-1.3L67,26.8
		c-1.7-0.4-2.6-1.3-2.6-2.5c0-0.8,0.3-1.5,1-2s1.5-0.7,2.5-0.7c0.8,0,1.5,0.2,2.1,0.6c0.6,0.4,1.1,0.9,1.3,1.5l-1.5,0.6
		c-0.2-0.4-0.4-0.7-0.8-0.9c-0.4-0.2-0.8-0.3-1.3-0.3c-0.4,0-0.8,0.1-1.2,0.3c-0.3,0.2-0.5,0.5-0.5,0.8c0,0.5,0.5,0.9,1.4,1.1
		l1.4,0.3C70.7,26.1,71.6,27,71.6,28.3z"/>
	<path class="st1" d="M76.6,30.9c-0.7,0-1.3-0.2-1.8-0.7S74,29.2,74,28.4v-5h-1.6v-1.5H74v-2.7h1.7v2.7h2.2v1.5h-2.2v4.5
		c0,0.6,0.1,1,0.3,1.2c0.2,0.2,0.5,0.3,0.8,0.3c0.1,0,0.3,0,0.4,0s0.2-0.1,0.4-0.1l0.5,1.5C77.7,30.9,77.2,30.9,76.6,30.9z"/>
	<path class="st1" d="M79,26.3c0-1.4,0.4-2.5,1.3-3.4c0.9-0.9,2-1.4,3.3-1.4c1.3,0,2.4,0.5,3.3,1.4c0.9,0.9,1.3,2,1.3,3.4
		c0,1.4-0.4,2.5-1.3,3.4c-0.9,0.9-2,1.4-3.3,1.4c-1.3,0-2.4-0.5-3.3-1.4C79.4,28.8,79,27.7,79,26.3z M80.7,26.3c0,1,0.3,1.7,0.8,2.3
		c0.6,0.6,1.3,0.9,2.1,0.9s1.5-0.3,2.1-0.9c0.6-0.6,0.8-1.4,0.8-2.3c0-0.9-0.3-1.7-0.8-2.3c-0.6-0.6-1.3-0.9-2.1-0.9
		s-1.5,0.3-2.1,0.9C81,24.6,80.7,25.4,80.7,26.3z"/>
</g>
</svg>
