<svg width="92" height="32" xmlns="http://www.w3.org/2000/svg" xml:space="preserve" version="1.1">

 <g>
  <title>Layer 1</title>
  <path id="svg_1" fill="#ffffff" d="m35.1,18.5c0,-1.3 0,-2.5 0,-3.8c0,-0.9 0,-1.7 0.1,-2.6c0,-0.7 -0.5,-1.5 -1.1,-1.9c-0.4,-0.2 -0.8,-0.5 -1.3,-0.8c-0.6,-0.4 -1.3,-0.7 -1.9,-1.1c-0.5,-0.3 -0.9,-0.6 -1.4,-0.9c-0.3,-0.2 -0.7,-0.4 -1,-0.6c-0.6,-0.3 -1.1,-0.6 -1.6,-0.9c-0.4,-0.2 -0.7,-0.4 -1.1,-0.6c-0.5,-0.3 -1,-0.6 -1.4,-0.9c-0.8,-0.6 -2.2,-0.5 -3,0.1c-0.4,0.3 -0.9,0.5 -1.4,0.8c-0.6,0.4 -1.2,0.7 -1.8,1.1c-0.4,0.2 -0.9,0.4 -1.3,0.7c-0.7,0.4 -1.3,0.8 -1.9,1.2c-0.5,0.3 -1,0.5 -1.5,0.8s-1,0.6 -1.5,1c-0.2,0.1 -0.5,0.3 -0.6,0.4c-0.5,0.4 -0.7,1 -0.7,1.6c0,2.6 0,5.3 0,7.9c0,0.3 -0.1,0.6 -0.1,0.9c0,0.2 0.1,0.4 0.2,0.5c0.1,0.1 0.4,0 0.5,-0.1c0.6,-0.6 1.2,-1.2 1.7,-1.8c0.8,-0.8 1.6,-1.7 2.5,-2.5c1,-1 2,-1.9 2.9,-2.9c0.4,-0.4 0.8,-0.9 1.2,-1.2c0.5,-0.4 1.1,-0.6 1.7,-1c0.1,-0.1 0.2,-0.1 0.3,-0.1c1.4,-0.8 3,-0.6 4.5,-0.3c1,0.2 2,0.7 2.9,1.5s1.6,1.6 2.1,2.7c0.5,1 0.8,2.1 0.7,3.2c0,0.5 -0.2,0.7 -0.7,0.8c-1.4,0.1 -2.5,0.8 -3.2,1.9c-0.4,0.6 -0.6,1.3 -0.8,1.9c-0.2,0.9 -0.6,1.6 -1,2.3c0,0.1 -0.1,0.1 -0.1,0.2c-0.3,0.8 -0.9,1.4 -1.5,2s-1.4,1.2 -2.2,1.6c-0.6,0.3 -1.3,0.6 -1.9,0.8c-0.3,0.1 -0.7,0.2 -1.1,0.2c-1,0 -2,0 -3,0c-0.6,0 -1.3,-0.2 -1.9,-0.5c-0.6,-0.2 -1.1,-0.4 -1.6,-0.8s-1.1,-0.6 -1.5,-1.1c-0.1,-0.2 -0.1,-0.4 0.1,-0.6c0.4,-0.4 0.9,-0.8 1.3,-1.3c0.2,-0.2 0.4,-0.2 0.6,-0.1c0.6,0.4 1.2,0.7 1.8,1c0.6,0.2 1.2,0.3 1.8,0.5c0.1,0.3 0.5,0.3 1,0.3l0.1,0c0.7,-0.4 1.6,-0.1 2.3,-0.7c0.3,-0.2 0.7,-0.3 1,-0.6c0.6,-0.5 1.2,-1 1.7,-1.6c0.4,-0.4 0.5,-1 0.8,-1.6c0.1,-0.2 0.2,-0.4 0.3,-0.6c0.1,-0.3 0.2,-0.5 0.2,-0.8c0.1,-0.4 0.2,-0.8 0.4,-1.3c0.3,-0.4 0.5,-0.9 0.8,-1.3c0.5,-0.6 1,-1.1 1.7,-1.6c0.3,-0.2 0.6,-0.4 0.8,-0.6c0.2,-0.2 0.2,-0.4 0.1,-0.6c-0.5,-0.8 -1,-1.6 -2,-2c-0.4,-0.2 -0.8,-0.4 -1.2,-0.5c-0.9,-0.2 -1.8,-0.1 -2.7,0.2c-0.8,0.3 -1.4,0.8 -2,1.4c-0.5,0.6 -1.1,1.1 -1.6,1.6s-0.9,1 -1.4,1.4c-0.5,0.5 -1.1,1.1 -1.6,1.6s-1,1.1 -1.6,1.6c-0.5,0.5 -1,0.9 -1.5,1.4s-0.9,1 -1.4,1.5s-1,1 -1.5,1.5s-1,1 -1.5,1.5c-0.2,0.2 -0.4,0.4 -0.6,0.6c-0.6,0.6 -1.2,1.2 -1.8,1.7c-0.3,0.3 -0.4,0.2 -0.7,-0.1c-0.3,-0.3 -0.6,-0.6 -1,-0.9s-0.5,-0.8 -0.1,-1.2c0.8,-0.4 1.4,-1 2.1,-1.6c0.6,-0.6 1.2,-1.2 1.8,-1.9c0.2,-0.3 0.2,-0.6 0.1,-0.9c-0.4,-0.9 -0.4,-1.8 -0.4,-2.8c0,-2.9 0,-5.9 0,-8.8c0,-1.3 0.5,-2.4 1.4,-3.3c0.6,-0.6 1.4,-1 2.1,-1.5c0.4,-0.3 0.9,-0.5 1.3,-0.8c0.6,-0.3 1.2,-0.7 1.8,-1c0.8,-0.5 1.7,-1 2.5,-1.5c0.5,-0.3 1.1,-0.6 1.6,-0.9s1.1,-0.6 1.6,-0.9c1,-0.7 2.1,-0.9 3.3,-0.9c1.1,0 1.9,0.5 2.7,1c0.4,0.3 0.8,0.5 1.2,0.7c0.7,0.4 1.3,0.8 2,1.2c0.5,0.3 1,0.5 1.5,0.8c0.6,0.3 1.1,0.7 1.7,1c0.3,0.2 0.6,0.4 1,0.6c0.5,0.3 1,0.5 1.5,0.8c0.8,0.5 1.6,0.9 2.1,1.6c0.8,1.1 1.2,2.3 1.2,3.6c0,2.4 0,4.8 0,7.2c0,1.2 0.1,2.5 0,3.7c-0.1,1 -0.2,2 -0.5,3c-0.2,0.7 -0.7,1.4 -1.2,1.9c-0.7,0.8 -1.6,1.5 -2.6,1.9s-2.1,0.5 -3.1,0.5c-1.4,0 -2.8,0 -4.3,0c-0.6,0 -0.7,-0.2 -0.7,-0.8c0,-0.4 0,-0.9 0,-1.3c0,-0.7 0.2,-0.8 0.9,-0.8c0.8,0 1.7,0 2.5,0s1.5,0 2.3,0c1,0 1.8,-0.4 2.6,-1.1c0.4,-0.4 0.8,-0.8 1,-1.4c0.2,-0.5 0.3,-1.1 0.3,-1.6c-0.1,-1.6 -0.1,-3.4 -0.1,-5.2l0,0z" class="st0"/>
  <path id="svg_2" fill="#ffffff" d="m24.2,15.5c0.7,0 1.1,0.6 1.1,1.1c0,0.6 -0.5,1 -1.2,1.1c-0.5,0 -1.1,-0.5 -1.1,-1.1c0.1,-0.6 0.6,-1.1 1.2,-1.1z" class="st1"/>
  <g id="svg_3" enable-background="new" class="st2">
   <path id="svg_4" fill="#ffffff" d="m44.2,30.8l-1.7,0l0,-13.1l2,0l6.4,10.2l0.1,0l-0.1,-2.5l0,-7.7l1.7,0l0,13.1l-1.8,0l-6.6,-10.7l-0.1,0l0.1,2.5l0,8.2z" class="st1"/>
   <path id="svg_5" fill="#ffffff" d="m59,31.1c-1.3,0 -2.4,-0.5 -3.3,-1.4c-0.9,-0.9 -1.3,-2 -1.3,-3.4c0,-1.4 0.4,-2.5 1.2,-3.4c0.8,-0.9 1.9,-1.4 3.2,-1.4c1.3,0 2.4,0.4 3.2,1.3c0.8,0.9 1.2,2.1 1.2,3.6l0,0.2l-7,0c0,0.9 0.3,1.6 0.9,2.1c0.6,0.5 1.2,0.8 2,0.8c1.1,0 1.9,-0.5 2.5,-1.6l1.5,0.7c-0.4,0.8 -1,1.3 -1.7,1.8s-1.5,0.7 -2.4,0.7zm-2.7,-5.9l5.1,0c0,-0.6 -0.3,-1.1 -0.8,-1.5c-0.5,-0.4 -1.1,-0.6 -1.8,-0.6c-0.6,0 -1.2,0.2 -1.6,0.6c-0.5,0.4 -0.8,0.9 -0.9,1.5z" class="st1"/>
   <path id="svg_6" fill="#ffffff" d="m71.6,28.3c0,0.8 -0.3,1.4 -1,2c-0.7,0.5 -1.5,0.8 -2.6,0.8c-0.9,0 -1.7,-0.2 -2.4,-0.7c-0.7,-0.5 -1.2,-1.1 -1.5,-1.9l1.5,-0.6c0.2,0.5 0.5,1 1,1.3c0.4,0.3 0.9,0.4 1.4,0.4c0.5,0 1,-0.1 1.3,-0.3c0.4,-0.2 0.5,-0.5 0.5,-0.8c0,-0.6 -0.4,-1 -1.3,-1.3l-1.5,-0.4c-1.7,-0.4 -2.6,-1.3 -2.6,-2.5c0,-0.8 0.3,-1.5 1,-2s1.5,-0.7 2.5,-0.7c0.8,0 1.5,0.2 2.1,0.6c0.6,0.4 1.1,0.9 1.3,1.5l-1.5,0.6c-0.2,-0.4 -0.4,-0.7 -0.8,-0.9c-0.4,-0.2 -0.8,-0.3 -1.3,-0.3c-0.4,0 -0.8,0.1 -1.2,0.3c-0.3,0.2 -0.5,0.5 -0.5,0.8c0,0.5 0.5,0.9 1.4,1.1l1.4,0.3c1.9,0.5 2.8,1.4 2.8,2.7z" class="st1"/>
   <path id="svg_7" fill="#ffffff" d="m76.6,30.9c-0.7,0 -1.3,-0.2 -1.8,-0.7s-0.8,-1 -0.8,-1.8l0,-5l-1.6,0l0,-1.5l1.6,0l0,-2.7l1.7,0l0,2.7l2.2,0l0,1.5l-2.2,0l0,4.5c0,0.6 0.1,1 0.3,1.2c0.2,0.2 0.5,0.3 0.8,0.3c0.1,0 0.3,0 0.4,0s0.2,-0.1 0.4,-0.1l0.5,1.5c-0.4,0.1 -0.9,0.1 -1.5,0.1z" class="st1"/>
   <path id="svg_8" fill="#ffffff" d="m79,26.3c0,-1.4 0.4,-2.5 1.3,-3.4c0.9,-0.9 2,-1.4 3.3,-1.4c1.3,0 2.4,0.5 3.3,1.4c0.9,0.9 1.3,2 1.3,3.4c0,1.4 -0.4,2.5 -1.3,3.4c-0.9,0.9 -2,1.4 -3.3,1.4c-1.3,0 -2.4,-0.5 -3.3,-1.4c-0.9,-0.9 -1.3,-2 -1.3,-3.4zm1.7,0c0,1 0.3,1.7 0.8,2.3c0.6,0.6 1.3,0.9 2.1,0.9s1.5,-0.3 2.1,-0.9c0.6,-0.6 0.8,-1.4 0.8,-2.3c0,-0.9 -0.3,-1.7 -0.8,-2.3c-0.6,-0.6 -1.3,-0.9 -2.1,-0.9s-1.5,0.3 -2.1,0.9c-0.5,0.6 -0.8,1.4 -0.8,2.3z" class="st1"/>
  </g>
 </g>
</svg>